<?xml version="1.0" encoding="UTF-8"?>
<svg id="b" data-name="Слой 2" xmlns="http://www.w3.org/2000/svg" width="1603.16" height="1060.18" viewBox="0 0 1603.16 1060.18">
  <defs>
    <style>
      .au {
        fill: #e5e5e5;
        stroke-width: 5.36px;
      }

      .au, .av {
        fill-rule: evenodd;
      }

      .au, .av, .aw, .ax, .ay {
        stroke: #000;
      }

      .az {
        fill: #fff;
      }

      .aw {
        fill: none;
        stroke-width: 15.76px;
      }

      .ax {
        stroke-width: 2px;
      }
    </style>
  </defs>
  <g id="c" data-name="Группа 2">
    <rect id="d" data-name="Прямоугольник 9" class="az" x="13.88" y="12.78" width="1576.4" height="1017"/>
    <path id="e" data-name="Прямоугольник 12" class="ax" d="M1406.88,899.88h84c2.2,0,4,1.8,4,4v2c0,2.2-1.8,4-4,4h-84c-2.2,0-4-1.8-4-4v-2c0-2.2,1.8-4,4-4Z"/>
    <path id="f" data-name="Прямоугольник 12-2" class="ax" d="M1385.88,920.88h125c2.2,0,4,1.8,4,4v2c0,2.2-1.8,4-4,4h-125c-2.2,0-4-1.8-4-4v-2c0-2.2,1.8-4,4-4Z"/>
    <path id="g" data-name="Прямоугольник 12-3" class="ax" d="M1152.88,899.88h84c2.2,0,4,1.8,4,4v2c0,2.2-1.8,4-4,4h-84c-2.2,0-4-1.8-4-4v-2c0-2.2,1.8-4,4-4Z"/>
    <path id="h" data-name="Прямоугольник 12-4" class="ax" d="M1131.88,920.88h125c2.2,0,4,1.8,4,4v2c0,2.2-1.8,4-4,4h-125c-2.2,0-4-1.8-4-4v-2c0-2.2,1.8-4,4-4Z"/>
    <path id="i" data-name="Прямоугольник 12-5" class="ax" d="M897.88,899.88h84c2.2,0,4,1.8,4,4v2c0,2.2-1.8,4-4,4h-84c-2.2,0-4-1.8-4-4v-2c0-2.2,1.8-4,4-4Z"/>
    <path id="j" data-name="Прямоугольник 12-6" class="ax" d="M876.88,920.88h125c2.2,0,4,1.8,4,4v2c0,2.2-1.8,4-4,4h-125c-2.2,0-4-1.8-4-4v-2c0-2.2,1.8-4,4-4Z"/>
    <path id="k" data-name="Прямоугольник 12-7" class="ax" d="M617.88,899.88h84c2.2,0,4,1.8,4,4v2c0,2.2-1.8,4-4,4h-84c-2.2,0-4-1.8-4-4v-2c0-2.2,1.8-4,4-4Z"/>
    <path id="l" data-name="Прямоугольник 12-8" class="ax" d="M596.88,920.88h125c2.2,0,4,1.8,4,4v2c0,2.2-1.8,4-4,4h-125c-2.2,0-4-1.8-4-4v-2c0-2.2,1.8-4,4-4Z"/>
    <path id="m" data-name="Прямоугольник 12-9" class="ax" d="M368.88,899.88h84c2.2,0,4,1.8,4,4v2c0,2.2-1.8,4-4,4h-84c-2.2,0-4-1.8-4-4v-2c0-2.2,1.8-4,4-4Z"/>
    <path id="n" data-name="Прямоугольник 12-10" class="ax" d="M347.88,920.88h125c2.2,0,4,1.8,4,4v2c0,2.2-1.8,4-4,4h-125c-2.2,0-4-1.8-4-4v-2c0-2.2,1.8-4,4-4Z"/>
    <path id="o" data-name="Прямоугольник 12-11" class="ax" d="M106.88,899.88h84c2.2,0,4,1.8,4,4v2c0,2.2-1.8,4-4,4H106.88c-2.2,0-4-1.8-4-4v-2c0-2.2,1.8-4,4-4Z"/>
    <path id="p" data-name="Прямоугольник 12-12" class="ax" d="M85.88,920.88h125c2.2,0,4,1.8,4,4v2c0,2.2-1.8,4-4,4H85.88c-2.2,0-4-1.8-4-4v-2c0-2.2,1.8-4,4-4Z"/>
    <rect id="q" data-name="Прямоугольник 10" class="az" x="757.88" y="1039.18" width="83" height="7"/>
    <path id="r" data-name="Прямоугольник 4" class="aw" d="M7.88,7.88H1595.28v1023.5H7.88V7.88Z"/>
    <path id="s" data-name="Прямоугольник 5" class="ay" d="M794.88,7.88h7.46v1023.5h-7.46V7.88Z"/>
    <path id="t" data-name="Прямоугольник 6" class="av" d="M742.88,1046.68h113v13h-113v-13Z"/>
    <path id="u" data-name="Прямоугольник 7" class="av" d="M840.88,1029.78h15v16h-15v-16Z"/>
    <path id="v" data-name="Прямоугольник 8" class="av" d="M742.88,1029.78h15v16h-15v-16Z"/>
    <path id="w" data-name="Прямоугольник 1" class="au" d="M50.88,172.88H249.48V469.08H50.88V172.88Z"/>
    <path id="x" data-name="Прямоугольник 2" class="au" d="M50.88,567.28H249.18v297.9H50.88v-297.9Z"/>
    <path id="y" data-name="Прямоугольник 2-2" class="au" d="M311.38,568.28h198.4v298.1h-198.4v-298.1Z"/>
    <path id="z" data-name="Прямоугольник 1-2" class="au" d="M559.48,173.78h198V468.98h-198V173.78Z"/>
    <path id="aa" data-name="Прямоугольник 1-3" class="au" d="M305.38,174.78h198V469.98h-198V174.78Z"/>
    <path id="ab" data-name="Прямоугольник 2-3" class="au" d="M559.88,567.28h198.3v297.9h-198.3v-297.9Z"/>
    <path id="ac" data-name="Прямоугольник 2-4" class="au" d="M840.68,568.28h198.3v297.9h-198.3v-297.9Z"/>
    <path id="ad" data-name="Прямоугольник 2-5" class="au" d="M1095.48,568.28h198.4v298.1h-198.4v-298.1Z"/>
    <path id="ae" data-name="Прямоугольник 2-6" class="au" d="M1350.38,568.38h198.4v298h-198.4v-298Z"/>
    <path id="af" data-name="Прямоугольник " class="au" d="M1349.68,174.78h198V470.08h-198V174.78Z"/>
    <path id="ag" data-name="Прямоугольник 1-4" class="au" d="M1095.48,173.78h198V468.98h-198V173.78Z"/>
    <path id="ah" data-name="Прямоугольник 1-5" class="au" d="M841.38,173.78h198V468.98h-198V173.78h0Z"/>
    <path id="ai" data-name="Прямоугольник 12-13" class="ax" d="M897.88,117.88h84c2.2,0,4,1.8,4,4v2c0,2.2-1.8,4-4,4h-84c-2.2,0-4-1.8-4-4v-2c0-2.2,1.8-4,4-4Z"/>
    <path id="aj" data-name="Прямоугольник 12-14" class="ax" d="M876.88,138.88h125c2.2,0,4,1.8,4,4v2c0,2.2-1.8,4-4,4h-125c-2.2,0-4-1.8-4-4v-2c0-2.2,1.8-4,4-4Z"/>
    <path id="ak" data-name="Прямоугольник 12-15" class="ax" d="M1152.88,117.88h84c2.2,0,4,1.8,4,4v2c0,2.2-1.8,4-4,4h-84c-2.2,0-4-1.8-4-4v-2c0-2.2,1.8-4,4-4Z"/>
    <path id="al" data-name="Прямоугольник 12-16" class="ax" d="M1131.88,138.88h125c2.2,0,4,1.8,4,4v2c0,2.2-1.8,4-4,4h-125c-2.2,0-4-1.8-4-4v-2c0-2.2,1.8-4,4-4Z"/>
    <path id="am" data-name="Прямоугольник 12-17" class="ax" d="M1407.88,117.88h84c2.2,0,4,1.8,4,4v2c0,2.2-1.8,4-4,4h-84c-2.2,0-4-1.8-4-4v-2c0-2.2,1.8-4,4-4Z"/>
    <path id="an" data-name="Прямоугольник 12-18" class="ax" d="M1386.88,138.88h125c2.2,0,4,1.8,4,4v2c0,2.2-1.8,4-4,4h-125c-2.2,0-4-1.8-4-4v-2c0-2.2,1.8-4,4-4Z"/>
    <path id="ao" data-name="Прямоугольник 12-19" class="ax" d="M617.88,117.88h84c2.2,0,4,1.8,4,4v2c0,2.2-1.8,4-4,4h-84c-2.2,0-4-1.8-4-4v-2c0-2.2,1.8-4,4-4Z"/>
    <path id="ap" data-name="Прямоугольник 12-20" class="ax" d="M596.88,138.88h125c2.2,0,4,1.8,4,4v2c0,2.2-1.8,4-4,4h-125c-2.2,0-4-1.8-4-4v-2c0-2.2,1.8-4,4-4Z"/>
    <path id="aq" data-name="Прямоугольник 12-21" class="ax" d="M368.88,117.88h84c2.2,0,4,1.8,4,4v2c0,2.2-1.8,4-4,4h-84c-2.2,0-4-1.8-4-4v-2c0-2.2,1.8-4,4-4Z"/>
    <path id="ar" data-name="Прямоугольник 12-22" class="ax" d="M347.88,138.88h125c2.2,0,4,1.8,4,4v2c0,2.2-1.8,4-4,4h-125c-2.2,0-4-1.8-4-4v-2c0-2.2,1.8-4,4-4Z"/>
    <path id="as" data-name="Прямоугольник 12-23" class="ax" d="M107.88,117.88h84c2.2,0,4,1.8,4,4v2c0,2.2-1.8,4-4,4H107.88c-2.2,0-4-1.8-4-4v-2c0-2.2,1.8-4,4-4Z"/>
    <path id="at" data-name="Прямоугольник 12-24" class="ax" d="M86.88,138.88h125c2.2,0,4,1.8,4,4v2c0,2.2-1.8,4-4,4H86.88c-2.2,0-4-1.8-4-4v-2c0-2.2,1.8-4,4-4Z"/>
  </g>
</svg>