<?xml version="1.0" encoding="UTF-8"?>
<svg id="b" data-name="Слой 2" xmlns="http://www.w3.org/2000/svg" width="1603.16" height="1060.22" viewBox="0 0 1603.16 1060.22">
  <defs>
    <style>
      .s {
        fill: #e5e5e5;
        stroke-width: 5.36px;
      }

      .s, .t, .u {
        fill-rule: evenodd;
      }

      .s, .t, .u, .v, .w {
        stroke: #000;
      }

      .t {
        stroke-width: 2px;
      }

      .x {
        fill: #fff;
      }

      .v {
        fill: none;
        stroke-width: 15.76px;
      }
    </style>
  </defs>
  <g id="c" data-name="Группа 2">
    <rect id="d" data-name="Прямоугольник 9" class="x" x="7.88" y="7.88" width="1587.4" height="1022.32"/>
    <rect id="e" data-name="Прямоугольник 10" class="x" x="757.88" y="1039.2" width="83" height="7"/>
    <path id="f" data-name="Прямоугольник 2" class="s" d="M921.2,64.76h565.37V886.59H921.2V64.76Z"/>
    <path id="g" data-name="Прямоугольник 2-2" class="s" d="M109.2,64.75H674.57V886.59H109.2V64.75Z"/>
    <path id="h" data-name="Прямоугольник 4" class="v" d="M7.88,7.88H1595.28v1023.48H7.88V7.88Z"/>
    <path id="i" data-name="Прямоугольник 5" class="w" d="M794.88,12.34h9V1019.88h-9V12.34Z"/>
    <path id="j" data-name="Прямоугольник 6" class="u" d="M742.88,1046.72h113v13h-113v-13Z"/>
    <path id="k" data-name="Прямоугольник 7" class="u" d="M840.88,1030.2h15v16h-15v-16Z"/>
    <path id="l" data-name="Прямоугольник 8" class="u" d="M742.88,1030.2h15v16h-15v-16Z"/>
    <path id="m" data-name="Прямоугольник 12" class="t" d="M112.88,913.88H671.81c2.21,0,4,1.79,4,4v2c0,2.21-1.79,4-4,4H112.88c-2.21,0-4-1.79-4-4v-2c0-2.21,1.79-4,4-4Z"/>
    <path id="n" data-name="Прямоугольник 12-2" class="t" d="M112.88,938.88H671.81c2.21,0,4,1.79,4,4v2c0,2.21-1.79,4-4,4H112.88c-2.21,0-4-1.79-4-4v-2c0-2.21,1.79-4,4-4Z"/>
    <path id="o" data-name="Прямоугольник 12-3" class="t" d="M111.88,963.88h442.99c2.21,0,4,1.79,4,4v2c0,2.21-1.79,4-4,4H111.88c-2.21,0-4-1.79-4-4v-2c0-2.21,1.79-4,4-4Z"/>
    <path id="p" data-name="Прямоугольник 12-4" class="t" d="M925.88,913.88h502.99c2.21,0,4,1.79,4,4v2c0,2.21-1.79,4-4,4h-502.99c-2.21,0-4-1.79-4-4v-2c0-2.21,1.79-4,4-4Z"/>
    <path id="q" data-name="Прямоугольник 12-5" class="t" d="M925.88,938.88h531.99c2.21,0,4,1.79,4,4v2c0,2.21-1.79,4-4,4H925.88c-2.21,0-4-1.79-4-4v-2c0-2.21,1.79-4,4-4Z"/>
    <path id="r" data-name="Прямоугольник 12-6" class="t" d="M924.88,963.88h442.99c2.21,0,4,1.79,4,4v2c0,2.21-1.79,4-4,4h-442.99c-2.21,0-4-1.79-4-4v-2c0-2.21,1.79-4,4-4Z"/>
  </g>
</svg>