<svg width="52" height="44" viewBox="0 0 52 44" fill="none" xmlns="http://www.w3.org/2000/svg">
<path fill-rule="evenodd" clip-rule="evenodd" d="M5.41721 16.3872C17.3942 11.1042 25.4079 7.60928 29.4354 5.91323C35.1425 3.50989 38.6594 2.06939 40.9525 1.22694C43.1939 0.403416 44.5824 0.0241546 45.8959 0.000767166C46.3026 -0.00652242 46.8311 0.0372153 47.3864 0.171567C47.9227 0.30126 48.7114 0.569558 49.4347 1.16376C50.6279 2.14401 51.0062 3.4856 51.1406 4.32299C51.2822 5.20523 51.2364 6.04313 51.1859 6.58043C50.5516 13.3277 47.845 29.4526 46.4828 36.8256C45.8521 40.2394 44.2452 43.2634 40.9946 43.5662C38.9138 43.7601 37.2146 43.0277 35.9102 42.2518C35.2666 41.869 34.655 41.4361 34.119 41.0506C34.021 40.9801 33.9255 40.9112 33.8319 40.8436C33.3849 40.5212 32.9802 40.2291 32.5516 39.9446C30.716 38.7264 29.2798 37.7382 27.8729 36.7681L27.6907 36.6426C26.3468 35.716 25.0178 34.7997 23.3555 33.6906C22.1825 32.908 21.0829 31.959 20.4445 30.7211C19.7557 29.3855 19.7557 28.0234 20.1818 26.8326C18.3558 28.0396 16.3683 28.8486 14.2954 28.8033C13.196 28.7792 11.8384 28.4907 10.667 28.1934C9.42598 27.8783 8.12398 27.481 7.03158 27.1215C6.81198 27.0493 6.57228 26.9733 6.32068 26.8934C5.3617 26.5892 4.23081 26.2306 3.39213 25.8193C2.826 25.5417 2.05071 25.0886 1.43922 24.3276C0.732202 23.4478 0.382432 22.3261 0.532232 21.1163C0.732462 19.4992 1.82322 18.4676 2.55589 17.9168C3.35517 17.3158 4.35272 16.8185 5.41721 16.3872ZM6.57248 19.1907C18.5772 13.8953 26.5822 10.4043 30.5876 8.7176C42.0236 3.90181 44.3999 3.06523 45.9488 3.03759C46.2894 3.03152 47.0511 3.11707 47.5445 3.52235C48.2831 4.12911 48.2809 5.42615 48.1994 6.2927C47.5797 12.8852 44.8982 28.8835 43.5339 36.2672C42.9567 39.3916 41.8201 40.4392 40.7197 40.5416C38.826 40.7181 37.2931 39.6117 35.587 38.3803C35.1386 38.0566 34.6782 37.7243 34.1962 37.4044C32.3043 36.1487 30.842 35.1405 29.3759 34.1297C28.0335 33.2041 26.6879 32.2764 25.0063 31.1545C21.507 28.8199 22.9719 27.3902 24.9252 25.4838C25.2414 25.1751 25.5704 24.8539 25.8933 24.5144C26.0374 24.363 26.7423 23.6994 27.7362 22.7639C28.8343 21.7303 30.2851 20.3647 31.7216 18.9912C33.146 17.6291 34.5565 16.2592 35.5953 15.1971C35.9783 14.8054 36.3108 14.4557 36.5749 14.1636C36.9692 13.7274 37.2108 13.4198 37.2401 13.2936C37.2656 13.1835 37.2892 12.7731 37.0484 12.5565C36.8077 12.3398 36.4523 12.4139 36.1958 12.4729C36.1312 12.4877 35.8948 12.6225 35.4868 12.8772C35.1892 13.063 34.8003 13.3127 34.32 13.6261C33.2676 14.3129 31.7766 15.3061 29.8471 16.6055C27.0772 18.4712 23.4035 20.9682 18.826 24.0965C17.1825 25.2391 15.6939 25.7958 14.3602 25.7666C12.8899 25.7344 10.0616 24.9249 7.95898 24.233C7.65018 24.1313 7.34898 24.0355 7.05828 23.9429C4.92121 23.2626 3.35183 22.7629 3.50893 21.4941C3.6019 20.7434 4.62307 19.9756 6.57248 19.1907Z" fill="#222222"/>
</svg>
