<?xml version="1.0" encoding="UTF-8"?>
<svg id="b" data-name="Слой 2" xmlns="http://www.w3.org/2000/svg" width="1603.16" height="1060.38" xmlns:xlink="http://www.w3.org/1999/xlink" viewBox="0 0 1603.16 1060.38">
  <defs>
    <style>
      .cp {
        stroke: #fff;
      }

      .cp, .cq {
        fill: #fff;
      }

      .cp, .cr {
        stroke-width: 15.76px;
      }

      .cs, .cr {
        fill: none;
      }

      .ct {
        fill-rule: evenodd;
      }

      .ct, .cr, .cu {
        stroke: #000;
      }

      .cv {
        fill: #a7a6a6;
      }

      .cw {
        fill: #565555;
      }

      .cx {
        clip-path: url(#l);
      }

      .cy {
        clip-path: url(#r);
      }

      .cz {
        clip-path: url(#o);
      }

      .da {
        clip-path: url(#i);
      }

      .db {
        clip-path: url(#u);
      }

      .dc {
        clip-path: url(#x);
      }

      .dd {
        clip-path: url(#f);
      }

      .de {
        clip-path: url(#ay);
      }

      .df {
        clip-path: url(#av);
      }

      .dg {
        clip-path: url(#as);
      }

      .dh {
        clip-path: url(#aj);
      }

      .di {
        clip-path: url(#ap);
      }

      .dj {
        clip-path: url(#ag);
      }

      .dk {
        clip-path: url(#aa);
      }

      .dl {
        clip-path: url(#ad);
      }

      .dm {
        clip-path: url(#am);
      }

      .dn {
        clip-path: url(#bn);
      }

      .do {
        clip-path: url(#bh);
      }

      .dp {
        clip-path: url(#cc);
      }

      .dq {
        clip-path: url(#cf);
      }

      .dr {
        clip-path: url(#bt);
      }

      .ds {
        clip-path: url(#bz);
      }

      .dt {
        clip-path: url(#bw);
      }

      .du {
        clip-path: url(#bq);
      }

      .dv {
        clip-path: url(#bk);
      }

      .dw {
        clip-path: url(#be);
      }

      .dx {
        clip-path: url(#bb);
      }

      .dy {
        isolation: isolate;
      }
    </style>
    <clipPath id="f">
      <rect class="cs" x="803.88" y="16.08" width="783.9" height="1007.7"/>
    </clipPath>
    <clipPath id="i">
      <rect class="cs" x="803.88" y="16.08" width="783.9" height="1007.7"/>
    </clipPath>
    <clipPath id="l">
      <rect class="cs" x="803.88" y="16.08" width="783.9" height="1007.7"/>
    </clipPath>
    <clipPath id="o">
      <rect class="cs" x="803.88" y="16.08" width="783.9" height="1007.7"/>
    </clipPath>
    <clipPath id="r">
      <rect class="cs" x="803.88" y="16.08" width="783.9" height="1007.7"/>
    </clipPath>
    <clipPath id="u">
      <rect class="cs" x="803.88" y="16.08" width="783.9" height="1007.7"/>
    </clipPath>
    <clipPath id="x">
      <rect class="cs" x="803.88" y="16.08" width="783.9" height="1007.7"/>
    </clipPath>
    <clipPath id="aa">
      <rect class="cs" x="803.88" y="16.08" width="783.9" height="1007.7"/>
    </clipPath>
    <clipPath id="ad">
      <rect class="cs" x="803.88" y="16.08" width="783.9" height="1007.7"/>
    </clipPath>
    <clipPath id="ag">
      <rect class="cs" x="803.88" y="16.08" width="783.9" height="1007.7"/>
    </clipPath>
    <clipPath id="aj">
      <rect class="cs" x="803.88" y="16.08" width="783.9" height="1007.7"/>
    </clipPath>
    <clipPath id="am">
      <rect class="cs" x="803.88" y="16.08" width="783.9" height="1007.7"/>
    </clipPath>
    <clipPath id="ap">
      <rect class="cs" x="803.88" y="16.08" width="783.9" height="1007.7"/>
    </clipPath>
    <clipPath id="as">
      <rect class="cs" x="803.88" y="16.08" width="783.9" height="1007.7"/>
    </clipPath>
    <clipPath id="av">
      <rect class="cs" x="803.88" y="16.08" width="783.9" height="1007.7"/>
    </clipPath>
    <clipPath id="ay">
      <rect class="cs" x="803.88" y="16.08" width="783.9" height="1007.7"/>
    </clipPath>
    <clipPath id="bb">
      <rect class="cs" x="803.88" y="16.08" width="783.9" height="1007.7"/>
    </clipPath>
    <clipPath id="be">
      <rect class="cs" x="803.88" y="16.08" width="783.9" height="1007.7"/>
    </clipPath>
    <clipPath id="bh">
      <rect class="cs" x="803.88" y="16.08" width="783.9" height="1007.7"/>
    </clipPath>
    <clipPath id="bk">
      <rect class="cs" x="803.88" y="16.08" width="783.9" height="1007.7"/>
    </clipPath>
    <clipPath id="bn">
      <rect class="cs" x="803.88" y="16.08" width="783.9" height="1007.7"/>
    </clipPath>
    <clipPath id="bq">
      <rect class="cs" x="803.88" y="16.08" width="783.9" height="1007.7"/>
    </clipPath>
    <clipPath id="bt">
      <rect class="cs" x="803.88" y="16.08" width="783.9" height="1007.7"/>
    </clipPath>
    <clipPath id="bw">
      <rect class="cs" x="803.88" y="16.08" width="783.9" height="1007.7"/>
    </clipPath>
    <clipPath id="bz">
      <rect class="cs" x="803.88" y="16.08" width="783.9" height="1007.7"/>
    </clipPath>
    <clipPath id="cc">
      <rect class="cs" x="803.88" y="16.08" width="783.9" height="1007.7"/>
    </clipPath>
    <clipPath id="cf">
      <rect class="cs" x="803.88" y="16.08" width="783.9" height="1007.7"/>
    </clipPath>
  </defs>
  <g id="c" data-name="Группа 2">
    <g>
      <rect id="d" data-name="Прямоугольник 9" class="cq" x="799.38" y="16.08" width="789.1" height="1007.7"/>
      <g id="e" data-name="Группа 8">
        <g class="dd">
          <g id="g" data-name=" 2">
            <g id="h" data-name=" 2" class="dy">
              <path class="cv" d="M1220.78,176.98c3-4.4,6.1-6.8,9.5-7.3,3.3-.5,6.7,.4,10,2.6,3.1,2.1,5.1,4.7,6,8s-.1,7.1-3.1,11.5c-2.9,4.3-6.2,6.8-9.7,7.3s-6.8-.2-9.9-2.3c-3.3-2.2-5.3-5-6.1-8.3-.7-3.3,.4-7.2,3.3-11.5Zm23.5-25.6l3.3-4.9c3.4-5,6.8-9,10.2-12,3.4-3,7.3-5.2,11.8-6.8,4.5-1.6,10.1-2.7,16.7-3.4,7.7-.8,14-1.7,18.8-2.6s8.8-2.4,12-4.5c3.2-2,6.2-5.1,9-9.2,4.4-6.5,5.7-12.9,3.8-19.2-1.9-6.3-6.7-12-14.4-17.1-6.3-4.2-12.4-7.1-18.3-8.8s-11.9-2.9-17.9-3.7l3-16.3c7,.8,14.1,2.3,21.4,4.6,7.2,2.3,14.6,6,22,11,12.2,8.1,19.7,17.4,22.3,27.9,2.7,10.4,.4,20.9-6.7,31.4-4,5.8-8.3,10.2-12.9,13-4.7,2.8-9.9,4.8-15.7,5.9-5.8,1.1-12.4,2-19.7,2.7-6.6,.7-11.8,1.7-15.9,2.9-4,1.2-7.4,2.9-10.1,5.2-2.7,2.2-5.4,5.3-8,9.2l-2.1,3.1-12.6-8.4Z"/>
            </g>
          </g>
        </g>
        <g class="da">
          <g id="j" data-name=" 3">
            <g id="k" data-name=" 3" class="dy">
              <path class="cv" d="M1019.88,220.28c3-4.4,6.1-6.8,9.5-7.3,3.3-.5,6.7,.4,10,2.6,3.1,2.1,5.1,4.7,6.1,8,.9,3.3-.1,7.1-3.1,11.5-2.9,4.3-6.2,6.8-9.7,7.3s-6.8-.2-9.9-2.3c-3.3-2.2-5.3-5-6.1-8.3-.8-3.3,.3-7.2,3.2-11.5Zm23.4-25.6l3.3-4.9c3.4-5,6.8-9,10.2-12,3.4-3,7.3-5.2,11.8-6.8s10.1-2.7,16.7-3.4c7.7-.8,14-1.7,18.8-2.6,4.8-.9,8.8-2.4,12-4.5,3.2-2,6.2-5.1,9-9.2,4.4-6.5,5.7-12.9,3.8-19.2-1.9-6.3-6.7-12-14.4-17.1-6.3-4.2-12.4-7.1-18.3-8.8-5.9-1.7-11.9-2.9-17.9-3.7l3-16.3c7,.8,14.1,2.3,21.4,4.6,7.2,2.3,14.6,6,22,11,12.2,8.1,19.7,17.4,22.3,27.9,2.7,10.4,.4,20.9-6.7,31.4-4,5.8-8.3,10.2-12.9,13-4.7,2.8-9.9,4.8-15.7,5.9-5.8,1.1-12.4,2-19.7,2.7-6.6,.7-11.8,1.7-15.9,2.9-4,1.2-7.4,2.9-10.1,5.2-2.7,2.2-5.4,5.3-8,9.2l-2.1,3.1-12.6-8.4Z"/>
            </g>
          </g>
        </g>
        <g class="cx">
          <g id="m" data-name=" 4">
            <g id="n" data-name=" 4" class="dy">
              <path class="cv" d="M824.88,267.68c3-4.4,6.1-6.8,9.5-7.3,3.3-.5,6.7,.4,10,2.6,3.1,2.1,5.1,4.7,6,8s-.1,7.1-3.1,11.5c-2.9,4.3-6.2,6.8-9.7,7.3s-6.8-.2-9.9-2.3c-3.3-2.2-5.3-5-6.1-8.3-.7-3.3,.3-7.1,3.3-11.5Zm23.4-25.6l3.3-4.9c3.4-5,6.8-9,10.2-12s7.3-5.2,11.8-6.8,10.1-2.7,16.7-3.4c7.7-.8,14-1.7,18.8-2.6,4.8-.9,8.8-2.4,12-4.5,3.2-2,6.2-5.1,9-9.2,4.4-6.5,5.7-12.9,3.8-19.2s-6.7-12-14.4-17.1c-6.3-4.2-12.4-7.1-18.3-8.8-5.9-1.7-11.9-2.9-17.9-3.7l3-16.3c7,.8,14.1,2.3,21.4,4.6,7.2,2.3,14.6,6,22,11,12.2,8.1,19.7,17.4,22.3,27.9,2.7,10.4,.4,20.9-6.7,31.4-4,5.8-8.3,10.2-12.9,13-4.7,2.8-9.9,4.8-15.7,5.9-5.8,1.1-12.4,2-19.7,2.7-6.6,.7-11.8,1.7-15.9,2.9-4,1.2-7.4,2.9-10.1,5.2-2.7,2.2-5.4,5.3-8,9.2l-2.1,3.1-12.6-8.4Z"/>
            </g>
          </g>
        </g>
        <g class="cz">
          <g id="p" data-name=" 5">
            <g id="q" data-name=" 5" class="dy">
              <path class="cv" d="M623.18,310.88c3-4.4,6.1-6.8,9.5-7.3,3.3-.5,6.7,.4,10,2.6,3.1,2.1,5.1,4.7,6,8s-.1,7.1-3.1,11.5c-2.9,4.3-6.2,6.8-9.7,7.3s-6.8-.2-9.9-2.3c-3.3-2.2-5.3-5-6.1-8.3-.7-3.3,.4-7.2,3.3-11.5Zm23.4-25.6l3.3-4.9c3.4-5,6.8-9,10.2-12s7.3-5.2,11.8-6.8c4.5-1.6,10.1-2.7,16.7-3.4,7.7-.8,14-1.7,18.8-2.6s8.8-2.4,12.1-4.5c3.2-2,6.2-5.1,9-9.2,4.4-6.5,5.7-12.9,3.8-19.2s-6.7-12-14.4-17.1c-6.3-4.2-12.4-7.1-18.3-8.8-5.9-1.7-11.9-2.9-17.9-3.7l3-16.3c7,.8,14.1,2.3,21.4,4.6,7.2,2.3,14.6,6,22,11,12.2,8.1,19.7,17.4,22.3,27.9,2.7,10.4,.4,20.9-6.7,31.4-4,5.8-8.3,10.2-12.9,13-4.7,2.8-9.9,4.8-15.7,5.9s-12.4,2-19.7,2.7c-6.6,.7-11.8,1.7-15.9,2.9-4,1.2-7.4,2.9-10.1,5.2-2.7,2.2-5.4,5.3-8,9.2l-2.1,3.1-12.7-8.4Z"/>
            </g>
          </g>
        </g>
        <g class="cy">
          <g id="s" data-name=" 6">
            <g id="t" data-name=" 6" class="dy">
              <path class="cv" d="M1415.78,129.58c3-4.4,6.1-6.8,9.5-7.3,3.3-.5,6.7,.4,10,2.6,3.1,2.1,5.1,4.7,6,8s-.1,7.1-3.1,11.5c-2.9,4.3-6.2,6.8-9.7,7.3s-6.8-.2-9.9-2.3c-3.3-2.2-5.3-5-6.1-8.3-.7-3.3,.4-7.2,3.3-11.5Zm23.5-25.6l3.3-4.9c3.4-5,6.8-9,10.2-12,3.4-3,7.3-5.2,11.8-6.8,4.5-1.6,10.1-2.7,16.7-3.4,7.7-.8,14-1.7,18.8-2.6s8.8-2.4,12.1-4.5c3.2-2,6.2-5.1,9-9.2,4.4-6.5,5.7-12.9,3.8-19.2-1.9-6.3-6.7-12-14.4-17.1-6.3-4.2-12.4-7.1-18.3-8.8s-11.9-2.9-17.9-3.7l3-16.3c7,.8,14.1,2.3,21.4,4.6,7.2,2.3,14.6,6,22,11,12.2,8.1,19.7,17.4,22.3,27.9,2.7,10.4,.4,20.9-6.7,31.4-4,5.8-8.3,10.2-12.9,13-4.7,2.8-9.9,4.8-15.7,5.9-5.8,1.1-12.4,2-19.7,2.7-6.6,.7-11.8,1.7-15.9,2.9-4,1.2-7.4,2.9-10.1,5.2-2.7,2.2-5.4,5.3-8,9.2l-2.1,3.1-12.7-8.4Z"/>
            </g>
          </g>
        </g>
        <g class="db">
          <g id="v" data-name=" 7">
            <g id="w" data-name=" 7" class="dy">
              <path class="cv" d="M1250.48,373.68c3-4.4,6.1-6.8,9.5-7.3,3.3-.5,6.7,.4,10,2.6,3.1,2.1,5.1,4.7,6,8s-.1,7.1-3.1,11.5c-2.9,4.3-6.2,6.8-9.7,7.3s-6.8-.2-9.9-2.3c-3.3-2.2-5.3-5-6.1-8.3-.7-3.3,.4-7.1,3.3-11.5Zm23.4-25.6l3.3-4.9c3.4-5,6.8-9,10.2-12,3.4-3,7.3-5.2,11.8-6.8,4.5-1.6,10.1-2.7,16.7-3.4,7.7-.8,14-1.7,18.8-2.6s8.8-2.4,12.1-4.5c3.2-2,6.2-5.1,9-9.2,4.4-6.5,5.7-12.9,3.8-19.2-1.9-6.3-6.7-12-14.4-17.1-6.3-4.2-12.4-7.1-18.3-8.8-5.9-1.7-11.9-2.9-17.9-3.7l3-16.3c7,.8,14.1,2.3,21.4,4.6,7.2,2.3,14.6,6,22,11,12.2,8.1,19.7,17.4,22.3,27.9,2.7,10.4,.4,20.9-6.7,31.4-4,5.8-8.3,10.2-12.9,13-4.7,2.8-9.9,4.8-15.7,5.9-5.8,1.1-12.4,2-19.7,2.7-6.6,.7-11.8,1.7-15.9,2.9-4,1.2-7.4,2.9-10.1,5.2-2.7,2.2-5.4,5.3-8,9.2l-2.1,3.1-12.7-8.4Z"/>
            </g>
          </g>
        </g>
        <g class="dc">
          <g id="y" data-name=" 8">
            <g id="z" data-name=" 8" class="dy">
              <path class="cv" d="M1085.08,617.88c3-4.4,6.1-6.8,9.5-7.3,3.3-.5,6.7,.4,10,2.6,3.1,2.1,5.1,4.7,6,8s-.1,7.1-3.1,11.5c-2.9,4.3-6.2,6.8-9.7,7.3s-6.8-.2-9.9-2.3c-3.3-2.2-5.3-5-6.1-8.3-.7-3.3,.4-7.2,3.3-11.5Zm23.5-25.7l3.3-4.9c3.4-5,6.8-9,10.2-12,3.4-3,7.3-5.2,11.8-6.8s10.1-2.7,16.7-3.4c7.7-.8,14-1.7,18.8-2.6,4.8-.9,8.8-2.4,12.1-4.5,3.2-2,6.2-5.1,9-9.2,4.4-6.5,5.7-12.9,3.8-19.2-1.9-6.3-6.7-12-14.4-17.1-6.3-4.2-12.4-7.1-18.3-8.8-5.9-1.7-11.9-2.9-17.9-3.7l3-16.3c7,.8,14.1,2.3,21.4,4.6,7.2,2.3,14.6,6,22,11,12.2,8.1,19.7,17.4,22.3,27.9,2.7,10.4,.4,20.9-6.7,31.4-4,5.8-8.3,10.2-12.9,13-4.7,2.8-9.9,4.8-15.7,5.9-5.8,1.1-12.4,2-19.7,2.7-6.6,.7-11.8,1.7-15.9,2.9-4,1.2-7.4,2.9-10.1,5.2-2.7,2.2-5.4,5.3-8,9.2l-2.1,3.1-12.7-8.4Z"/>
            </g>
          </g>
        </g>
        <g class="dk">
          <g id="ab" data-name=" 9">
            <g id="ac" data-name=" 9" class="dy">
              <path class="cv" d="M919.78,861.98c3-4.4,6.1-6.8,9.5-7.3,3.3-.5,6.7,.4,10,2.6,3.1,2.1,5.1,4.7,6,8s-.1,7.1-3.1,11.5c-2.9,4.3-6.2,6.8-9.7,7.3s-6.8-.2-9.9-2.3c-3.3-2.2-5.3-5-6.1-8.3-.7-3.3,.3-7.1,3.3-11.5Zm23.4-25.6l3.3-4.9c3.4-5,6.8-9,10.2-12s7.3-5.2,11.8-6.8,10.1-2.7,16.7-3.4c7.7-.8,14-1.7,18.8-2.6,4.8-.9,8.8-2.4,12.1-4.5,3.2-2,6.2-5.1,9-9.2,4.4-6.5,5.7-12.9,3.8-19.2-1.9-6.3-6.7-12-14.4-17.1-6.3-4.2-12.4-7.1-18.3-8.8-5.9-1.7-11.9-2.9-17.9-3.7l3-16.3c7,.8,14.1,2.3,21.4,4.6,7.2,2.3,14.6,6,22,11,12.2,8.1,19.7,17.4,22.3,27.9,2.7,10.4,.4,20.9-6.7,31.4-4,5.8-8.3,10.2-12.9,13-4.7,2.8-9.9,4.8-15.7,5.9-5.8,1.1-12.4,2-19.7,2.7-6.6,.7-11.8,1.7-15.9,2.9-4,1.2-7.4,2.9-10.1,5.2-2.7,2.2-5.4,5.3-8,9.2l-2.2,3.1-12.6-8.4Z"/>
            </g>
          </g>
        </g>
        <g class="dl">
          <g id="ae" data-name=" 11">
            <g id="af" data-name=" 11" class="dy">
              <path class="cv" d="M1485.68,527.68c3-4.4,6.1-6.8,9.5-7.3,3.3-.5,6.7,.4,10,2.6,3.1,2.1,5.1,4.7,6,8s-.1,7.1-3.1,11.5c-2.9,4.3-6.2,6.8-9.7,7.3s-6.8-.2-9.9-2.3c-3.3-2.2-5.3-5-6.1-8.3-.7-3.3,.4-7.1,3.3-11.5Zm23.4-25.6l3.3-4.9c3.4-5,6.8-9,10.2-12,3.4-3,7.3-5.2,11.8-6.8,4.5-1.6,10.1-2.7,16.7-3.4,7.7-.8,14-1.7,18.8-2.6s8.8-2.4,12-4.5c3.2-2,6.2-5.1,9-9.2,4.4-6.5,5.7-12.9,3.8-19.2-1.9-6.3-6.7-12-14.4-17.1-6.3-4.2-12.4-7.1-18.3-8.8-5.9-1.7-11.9-2.9-17.9-3.7l3-16.3c7,.8,14.1,2.3,21.4,4.6,7.2,2.3,14.6,6,22,11,12.2,8.1,19.7,17.4,22.3,27.9,2.7,10.4,.4,20.9-6.7,31.4-4,5.8-8.3,10.2-12.9,13-4.7,2.8-9.9,4.8-15.7,5.9-5.8,1.1-12.4,2-19.7,2.7-6.6,.7-11.8,1.7-15.9,2.9-4,1.2-7.4,2.9-10.1,5.2-2.7,2.2-5.4,5.3-8,9.2l-2.1,3.1-12.6-8.4Z"/>
            </g>
          </g>
        </g>
        <g class="dj">
          <g id="ah" data-name=" 12">
            <g id="ai" data-name=" 12" class="dy">
              <path class="cv" d="M1320.38,771.88c3-4.4,6.1-6.8,9.5-7.3,3.3-.5,6.7,.4,10,2.6,3.1,2.1,5.1,4.7,6,8s-.1,7.1-3.1,11.5c-2.9,4.3-6.2,6.8-9.7,7.3s-6.8-.2-9.9-2.3c-3.3-2.2-5.3-5-6.1-8.3-.8-3.3,.3-7.2,3.3-11.5Zm23.4-25.7l3.3-4.9c3.4-5,6.8-9,10.2-12,3.4-3,7.3-5.2,11.8-6.8s10.1-2.7,16.7-3.4c7.7-.8,14-1.7,18.8-2.6,4.8-.9,8.8-2.4,12-4.5,3.2-2,6.2-5.1,9-9.2,4.4-6.5,5.7-12.9,3.8-19.2-1.9-6.3-6.7-12-14.4-17.1-6.3-4.2-12.4-7.1-18.3-8.8s-11.9-2.9-17.9-3.7l3-16.3c7,.8,14.1,2.3,21.4,4.6,7.2,2.3,14.6,6,22,11,12.2,8.1,19.7,17.4,22.3,27.9,2.7,10.4,.4,20.9-6.7,31.4-4,5.8-8.3,10.2-12.9,13-4.7,2.8-9.9,4.8-15.7,5.9-5.8,1.1-12.4,2-19.7,2.7-6.6,.7-11.8,1.7-15.9,2.9-4,1.2-7.4,2.9-10.1,5.2-2.7,2.2-5.4,5.3-8,9.2l-2.1,3.1-12.6-8.4Z"/>
            </g>
          </g>
        </g>
        <g class="dh">
          <g id="ak" data-name=" 13">
            <g id="al" data-name=" 13" class="dy">
              <path class="cv" d="M1154.98,1015.98c3-4.4,6.1-6.8,9.5-7.3,3.3-.5,6.7,.4,10,2.6,3.1,2.1,5.1,4.7,6,8s-.1,7.1-3.1,11.5c-2.9,4.3-6.2,6.8-9.7,7.3s-6.8-.2-9.9-2.3c-3.3-2.2-5.3-5-6.1-8.3-.7-3.3,.4-7.1,3.3-11.5Zm23.4-25.6l3.3-4.9c3.4-5,6.8-9,10.2-12,3.4-3,7.3-5.2,11.8-6.8s10.1-2.7,16.7-3.4c7.7-.8,14-1.7,18.8-2.6,4.8-.9,8.8-2.4,12.1-4.5,3.2-2,6.2-5.1,9-9.2,4.4-6.5,5.7-12.9,3.8-19.2-1.9-6.3-6.7-12-14.4-17.2-6.3-4.2-12.4-7.1-18.3-8.8s-11.9-2.9-17.9-3.7l3-16.3c7,.8,14.1,2.3,21.4,4.6,7.2,2.3,14.6,6,22,11,12.2,8.1,19.7,17.4,22.3,27.9,2.7,10.4,.4,20.9-6.7,31.4-4,5.8-8.3,10.2-12.9,13-4.7,2.8-9.9,4.8-15.7,5.9-5.8,1.1-12.4,2-19.7,2.7-6.6,.7-11.8,1.7-15.9,2.9-4,1.2-7.4,2.9-10.1,5.2-2.7,2.2-5.4,5.3-8,9.2l-2.1,3.1-12.7-8.3Z"/>
            </g>
          </g>
        </g>
        <g class="dm">
          <g id="an" data-name=" 16">
            <g id="ao" data-name=" 16" class="dy">
              <path class="cv" d="M1564.68,930.88c3-4.4,6.1-6.8,9.5-7.3,3.3-.5,6.7,.4,10,2.6,3.1,2.1,5.1,4.7,6,8s-.1,7.1-3.1,11.5c-2.9,4.3-6.2,6.8-9.7,7.3s-6.8-.2-9.9-2.3c-3.3-2.2-5.3-5-6.1-8.3-.8-3.3,.3-7.2,3.3-11.5Zm23.4-25.7l3.3-4.9c3.4-5,6.8-9,10.2-12,3.4-3,7.3-5.2,11.8-6.8s10.1-2.7,16.7-3.4c7.7-.8,14-1.7,18.8-2.6,4.8-.9,8.8-2.4,12-4.5,3.2-2,6.2-5.1,9-9.2,4.4-6.5,5.7-12.9,3.8-19.2-1.9-6.3-6.7-12-14.4-17.2-6.3-4.2-12.4-7.1-18.3-8.8s-11.9-2.9-17.9-3.7l3-16.3c7,.8,14.1,2.3,21.4,4.6,7.2,2.3,14.6,6,22,11,12.2,8.1,19.7,17.4,22.3,27.9,2.7,10.4,.4,20.9-6.7,31.4-4,5.8-8.3,10.2-12.9,13-4.7,2.8-9.9,4.8-15.7,5.9-5.8,1.1-12.4,2-19.7,2.7-6.6,.7-11.8,1.7-15.9,2.9-4,1.2-7.4,2.9-10.1,5.2-2.7,2.2-5.4,5.3-8,9.2l-2.1,3.1-12.6-8.3Z"/>
            </g>
          </g>
        </g>
        <g class="di">
          <g id="aq" data-name=" 19">
            <g id="ar" data-name=" 19" class="dy">
              <path class="cv" d="M1528.08,728.68c3-4.4,6.1-6.8,9.5-7.3,3.3-.5,6.7,.4,10,2.6,3.1,2.1,5.1,4.7,6,8s-.1,7.1-3.1,11.5c-2.9,4.3-6.2,6.8-9.7,7.3s-6.8-.2-9.9-2.3c-3.3-2.2-5.3-5-6.1-8.3-.7-3.3,.4-7.1,3.3-11.5Zm23.4-25.6l3.3-4.9c3.4-5,6.8-9,10.2-12,3.4-3,7.3-5.2,11.8-6.8s10.1-2.7,16.7-3.4c7.7-.8,14-1.7,18.8-2.6,4.8-.9,8.8-2.4,12.1-4.5,3.2-2,6.2-5.1,9-9.2,4.4-6.5,5.7-12.9,3.8-19.2-1.9-6.3-6.7-12-14.4-17.1-6.3-4.2-12.4-7.1-18.3-8.8s-11.9-2.9-17.9-3.7l3-16.3c7,.8,14.1,2.3,21.4,4.6,7.2,2.3,14.6,6,22,11,12.2,8.1,19.7,17.4,22.3,27.9,2.7,10.4,.4,20.9-6.7,31.4-4,5.8-8.3,10.2-12.9,13-4.7,2.8-9.9,4.8-15.7,5.9-5.8,1.1-12.4,2-19.7,2.7-6.6,.7-11.8,1.7-15.9,2.9-4,1.2-7.4,2.9-10.1,5.2-2.7,2.2-5.4,5.3-8,9.2l-2.1,3.1-12.7-8.4Z"/>
            </g>
          </g>
        </g>
        <g class="dg">
          <g id="at" data-name=" 20">
            <g id="au" data-name=" 20" class="dy">
              <path class="cv" d="M1362.78,972.88c3-4.4,6.1-6.8,9.5-7.3,3.3-.5,6.7,.4,10,2.6,3.1,2.1,5.1,4.7,6,8s-.1,7.1-3.1,11.5c-2.9,4.3-6.2,6.8-9.7,7.3s-6.8-.2-9.9-2.3c-3.3-2.2-5.3-5-6.1-8.3-.8-3.3,.3-7.2,3.3-11.5Zm23.4-25.7l3.3-4.9c3.4-5,6.8-9,10.2-12,3.4-3,7.3-5.2,11.8-6.8s10.1-2.7,16.7-3.4c7.7-.8,14-1.7,18.8-2.6,4.8-.9,8.8-2.4,12.1-4.5,3.2-2,6.2-5.1,9-9.2,4.4-6.5,5.7-12.9,3.8-19.2-1.9-6.3-6.7-12-14.4-17.2-6.3-4.2-12.4-7.1-18.3-8.8s-11.9-2.9-17.9-3.7l3-16.3c7,.8,14.1,2.3,21.4,4.6,7.2,2.3,14.6,6,22,11,12.2,8.1,19.7,17.4,22.3,27.9,2.7,10.4,.4,20.9-6.7,31.4-4,5.8-8.3,10.2-12.9,13-4.7,2.8-9.9,4.8-15.7,5.9-5.8,1.1-12.4,2-19.7,2.7-6.6,.7-11.8,1.7-15.9,2.9-4,1.2-7.4,2.9-10.1,5.2-2.7,2.2-5.4,5.3-8,9.2l-2.1,3.1-12.7-8.3Z"/>
            </g>
          </g>
        </g>
        <g class="df">
          <g id="aw" data-name=" 22">
            <g id="ax" data-name=" 22" class="dy">
              <path class="cv" d="M788.18,66.98c3-4.4,6.1-6.8,9.5-7.3,3.3-.5,6.7,.4,10,2.6,3.1,2.1,5.1,4.7,6,8s-.1,7.1-3.1,11.5c-2.9,4.3-6.2,6.8-9.7,7.3s-6.8-.2-9.9-2.3c-3.3-2.2-5.3-5-6.1-8.3-.7-3.3,.3-7.1,3.3-11.5Zm23.4-25.6l3.3-4.9c3.4-5,6.8-9,10.2-12s7.3-5.2,11.8-6.8c4.5-1.6,10.1-2.7,16.7-3.4,7.7-.8,14-1.7,18.8-2.6,4.8-.9,8.8-2.4,12.1-4.5,3.2-2,6.2-5.1,9-9.2,4.4-6.5,5.7-12.9,3.8-19.2-1.9-6.3-6.7-12-14.4-17.1-6.3-4.2-12.4-7.1-18.3-8.8-5.9-1.7-11.9-2.9-17.9-3.7l3-16.3c7,.8,14.1,2.3,21.4,4.6,7.2,2.3,14.6,6,22,11,12.2,8.1,19.7,17.4,22.3,27.9,2.7,10.4,.4,20.9-6.7,31.4-4,5.8-8.3,10.2-12.9,13-4.7,2.8-9.9,4.8-15.7,5.9s-12.4,2-19.7,2.7c-6.6,.7-11.8,1.7-15.9,2.9-4,1.2-7.4,2.9-10.1,5.2-2.7,2.2-5.4,5.3-8,9.2l-2.1,3.1-12.7-8.4Z"/>
            </g>
          </g>
        </g>
        <g class="de">
          <g id="az" data-name=" 23">
            <g id="ba" data-name=" 23" class="dy">
              <path class="cv" d="M1445.48,326.28c3-4.4,6.1-6.8,9.5-7.3,3.3-.5,6.7,.4,10,2.6,3.1,2.1,5.1,4.7,6,8s-.1,7.1-3.1,11.5c-2.9,4.3-6.2,6.8-9.7,7.3s-6.8-.2-9.9-2.3c-3.3-2.2-5.3-5-6.1-8.3-.7-3.3,.4-7.2,3.3-11.5Zm23.4-25.6l3.3-4.9c3.4-5,6.8-9,10.2-12,3.4-3,7.3-5.2,11.8-6.8,4.5-1.6,10.1-2.7,16.7-3.4,7.7-.8,14-1.7,18.8-2.6s8.8-2.4,12-4.5c3.2-2,6.2-5.1,9-9.2,4.4-6.5,5.7-12.9,3.8-19.2-1.9-6.3-6.7-12-14.4-17.1-6.3-4.2-12.4-7.1-18.3-8.8s-11.9-2.9-17.9-3.7l3-16.3c7,.8,14.1,2.3,21.4,4.6,7.2,2.3,14.6,6,22,11,12.2,8.1,19.7,17.4,22.3,27.9,2.7,10.4,.4,20.9-6.7,31.4-4,5.8-8.3,10.2-12.9,13-4.7,2.8-9.9,4.8-15.7,5.9-5.8,1.1-12.4,2-19.7,2.7-6.6,.7-11.8,1.7-15.9,2.9-4,1.2-7.4,2.9-10.1,5.2-2.7,2.2-5.4,5.3-8,9.2l-2.1,3.1-12.6-8.4Z"/>
            </g>
          </g>
        </g>
        <g class="dx">
          <g id="bc" data-name=" 24">
            <g id="bd" data-name=" 24" class="dy">
              <path class="cv" d="M1055.48,421.18c3-4.4,6.1-6.8,9.5-7.3,3.3-.5,6.7,.4,10,2.6,3.1,2.1,5.1,4.7,6,8s-.1,7.1-3.1,11.5c-2.9,4.3-6.2,6.8-9.7,7.3s-6.8-.2-9.9-2.3c-3.3-2.2-5.3-5-6.1-8.3s.3-7.2,3.3-11.5Zm23.4-25.7l3.3-4.9c3.4-5,6.8-9,10.2-12,3.4-3,7.3-5.2,11.8-6.8,4.5-1.6,10.1-2.7,16.7-3.4,7.7-.8,14-1.7,18.8-2.6s8.8-2.4,12.1-4.5c3.2-2,6.2-5.1,9-9.2,4.4-6.5,5.7-12.9,3.8-19.2-1.9-6.3-6.7-12-14.4-17.1-6.3-4.2-12.4-7.1-18.3-8.8-5.9-1.7-11.9-2.9-17.9-3.7l3-16.3c7,.8,14.1,2.3,21.4,4.6,7.2,2.3,14.6,6,22,11,12.2,8.1,19.7,17.4,22.3,27.9,2.7,10.4,.4,20.9-6.7,31.4-4,5.8-8.3,10.2-12.9,13-4.7,2.8-9.9,4.8-15.7,5.9-5.8,1.1-12.4,2-19.7,2.7-6.6,.7-11.8,1.7-15.9,2.9-4,1.2-7.4,2.9-10.1,5.2-2.7,2.2-5.4,5.3-8,9.2l-2.1,3.1-12.7-8.4Z"/>
            </g>
          </g>
        </g>
        <g class="dw">
          <g id="bf" data-name=" 25">
            <g id="bg" data-name=" 25" class="dy">
              <path class="cv" d="M854.48,464.48c3-4.4,6.1-6.8,9.5-7.3,3.3-.5,6.7,.4,10,2.6,3.1,2.1,5.1,4.7,6,8s-.1,7.1-3.1,11.5c-2.9,4.3-6.2,6.8-9.7,7.3s-6.8-.2-9.9-2.3c-3.3-2.2-5.3-5-6.1-8.3-.7-3.4,.4-7.2,3.3-11.5Zm23.5-25.7l3.3-4.9c3.4-5,6.8-9,10.2-12s7.3-5.2,11.8-6.8c4.5-1.6,10.1-2.7,16.7-3.4,7.7-.8,14-1.7,18.8-2.6s8.8-2.4,12.1-4.5c3.2-2,6.2-5.1,9-9.2,4.4-6.5,5.7-12.9,3.8-19.2-1.9-6.3-6.7-12-14.4-17.2-6.3-4.2-12.4-7.1-18.3-8.8-5.9-1.7-11.9-2.9-17.9-3.7l3-16.3c7,.8,14.1,2.3,21.4,4.6,7.2,2.3,14.6,6,22,11,12.2,8.1,19.7,17.4,22.3,27.9,2.7,10.4,.4,20.9-6.7,31.4-4,5.8-8.3,10.2-12.9,13-4.7,2.8-9.9,4.8-15.7,5.9s-12.4,2-19.7,2.7c-6.6,.7-11.8,1.7-15.9,2.9-4,1.2-7.4,2.9-10.1,5.2-2.7,2.2-5.4,5.3-8,9.2l-2.1,3.1-12.7-8.3Z"/>
            </g>
          </g>
        </g>
        <g class="do">
          <g id="bi" data-name=" 26">
            <g id="bj" data-name=" 26" class="dy">
              <path class="cv" d="M659.48,511.88c3-4.4,6.1-6.8,9.5-7.3,3.3-.5,6.7,.4,10,2.6,3.1,2.1,5.1,4.7,6,8,.9,3.3-.1,7.1-3.1,11.5-2.9,4.3-6.2,6.8-9.7,7.3s-6.8-.2-9.9-2.3c-3.3-2.2-5.3-5-6.1-8.3-.7-3.4,.4-7.2,3.3-11.5Zm23.4-25.7l3.3-4.9c3.4-5,6.8-9,10.2-12s7.3-5.2,11.8-6.8c4.5-1.6,10.1-2.7,16.7-3.4,7.7-.8,14-1.7,18.8-2.6s8.8-2.4,12.1-4.5c3.2-2,6.2-5.1,9-9.2,4.4-6.5,5.7-12.9,3.8-19.2-1.9-6.3-6.7-12-14.4-17.1-6.3-4.2-12.4-7.1-18.3-8.8-5.9-1.7-11.9-2.9-17.9-3.7l3-16.3c7,.8,14.1,2.3,21.4,4.6,7.2,2.3,14.6,6,22,11,12.2,8.1,19.7,17.4,22.3,27.9,2.7,10.4,.4,20.9-6.7,31.4-4,5.8-8.3,10.2-12.9,13-4.7,2.8-9.9,4.8-15.7,5.9s-12.4,2-19.7,2.7c-6.6,.7-11.8,1.7-15.9,2.9-4,1.2-7.4,2.9-10.1,5.2-2.7,2.2-5.4,5.3-8,9.2l-2.1,3.1-12.7-8.4Z"/>
            </g>
          </g>
        </g>
        <g class="dv">
          <g id="bl" data-name=" 27">
            <g id="bm" data-name=" 27" class="dy">
              <path class="cv" d="M890.08,665.28c3-4.4,6.1-6.8,9.5-7.3,3.3-.5,6.7,.4,10,2.6,3.1,2.1,5.1,4.7,6,8s-.1,7.1-3.1,11.5c-2.9,4.3-6.2,6.8-9.7,7.3s-6.8-.2-9.9-2.3c-3.3-2.2-5.3-5-6.1-8.3-.7-3.3,.4-7.2,3.3-11.5Zm23.4-25.6l3.3-4.9c3.4-5,6.8-9,10.2-12s7.3-5.2,11.8-6.8,10.1-2.7,16.7-3.4c7.7-.8,14-1.7,18.8-2.6,4.8-.9,8.8-2.4,12-4.5,3.2-2,6.2-5.1,9-9.2,4.4-6.5,5.7-12.9,3.8-19.2s-6.7-12-14.4-17.1c-6.3-4.2-12.4-7.1-18.3-8.8-5.9-1.7-11.9-2.9-17.9-3.7l3-16.3c7,.8,14.1,2.3,21.4,4.6,7.2,2.3,14.6,6,22,11,12.2,8.1,19.7,17.4,22.3,27.9,2.7,10.4,.4,20.9-6.7,31.4-4,5.8-8.3,10.2-12.9,13-4.7,2.8-9.9,4.8-15.7,5.9-5.8,1.1-12.4,2-19.7,2.7-6.6,.7-11.8,1.7-15.9,2.9-4,1.2-7.4,2.9-10.1,5.2-2.7,2.2-5.4,5.3-8,9.2l-2.1,3.1-12.6-8.4Z"/>
            </g>
          </g>
        </g>
        <g class="dn">
          <g id="bo" data-name=" 28">
            <g id="bp" data-name=" 28" class="dy">
              <path class="cv" d="M1114.78,814.58c3-4.4,6.1-6.8,9.5-7.3,3.3-.5,6.7,.4,10,2.6,3.1,2.1,5.1,4.7,6,8s-.1,7.1-3.1,11.5c-2.9,4.3-6.2,6.8-9.7,7.3s-6.8-.2-9.9-2.3c-3.3-2.2-5.3-5-6.1-8.3-.7-3.3,.4-7.2,3.3-11.5Zm23.4-25.6l3.3-4.9c3.4-5,6.8-9,10.2-12,3.4-3,7.3-5.2,11.8-6.8s10.1-2.7,16.7-3.4c7.7-.8,14-1.7,18.8-2.6,4.8-.9,8.8-2.4,12.1-4.5,3.2-2,6.2-5.1,9-9.2,4.4-6.5,5.7-12.9,3.8-19.2-1.9-6.3-6.7-12-14.4-17.2-6.3-4.2-12.4-7.1-18.3-8.8s-11.9-2.9-17.9-3.7l3-16.3c7,.8,14.1,2.3,21.4,4.6,7.2,2.3,14.6,6,22,11,12.2,8.1,19.7,17.4,22.3,27.9,2.7,10.4,.4,20.9-6.7,31.4-4,5.8-8.3,10.2-12.9,13-4.7,2.8-9.9,4.8-15.7,5.9-5.8,1.1-12.4,2-19.7,2.7-6.6,.7-11.8,1.7-15.9,2.9-4,1.2-7.4,2.9-10.1,5.2-2.7,2.2-5.4,5.3-8,9.2l-2.1,3.1-12.7-8.3Z"/>
            </g>
          </g>
        </g>
        <g class="du">
          <g id="br" data-name=" 29">
            <g id="bs" data-name=" 29" class="dy">
              <path class="cv" d="M1287.38,570.58c3-4.4,6.1-6.8,9.5-7.3,3.3-.5,6.7,.4,10,2.6,3.1,2.1,5.1,4.7,6,8s-.1,7.1-3.1,11.5c-2.9,4.3-6.2,6.8-9.7,7.3s-6.8-.2-9.9-2.3c-3.3-2.2-5.3-5-6.1-8.3-.7-3.3,.4-7.2,3.3-11.5Zm23.4-25.6l3.3-4.9c3.4-5,6.8-9,10.2-12,3.4-3,7.3-5.2,11.8-6.8s10.1-2.7,16.7-3.4c7.7-.8,14-1.7,18.8-2.6,4.8-.9,8.8-2.4,12.1-4.5,3.2-2,6.2-5.1,9-9.2,4.4-6.5,5.7-12.9,3.8-19.2-1.9-6.3-6.7-12-14.4-17.1-6.3-4.2-12.4-7.1-18.3-8.8-5.9-1.7-11.9-2.9-17.9-3.7l3-16.3c7,.8,14.1,2.3,21.4,4.6,7.2,2.3,14.6,6,22,11,12.2,8.1,19.7,17.4,22.3,27.9,2.7,10.4,.4,20.9-6.7,31.4-4,5.8-8.3,10.2-12.9,13-4.7,2.8-9.9,4.8-15.7,5.9-5.8,1.1-12.4,2-19.7,2.7-6.6,.7-11.8,1.7-15.9,2.9-4,1.2-7.4,2.9-10.1,5.2-2.7,2.2-5.4,5.3-8,9.2l-2.1,3.1-12.7-8.4Z"/>
            </g>
          </g>
        </g>
        <g class="dr">
          <g id="bu" data-name=" 30">
            <g id="bv" data-name=" 30" class="dy">
              <path class="cv" d="M689.18,708.58c3-4.4,6.1-6.8,9.5-7.3,3.3-.5,6.7,.4,10,2.6,3.1,2.1,5.1,4.7,6.1,8,.9,3.3-.1,7.1-3.1,11.5-2.9,4.3-6.2,6.8-9.7,7.3s-6.8-.2-9.9-2.3c-3.3-2.2-5.3-5-6.1-8.3s.3-7.2,3.2-11.5Zm23.4-25.6l3.3-4.9c3.4-5,6.8-9,10.2-12s7.3-5.2,11.8-6.8,10.1-2.7,16.7-3.4c7.7-.8,14-1.7,18.8-2.6,4.8-.9,8.8-2.4,12-4.5,3.2-2,6.2-5.1,9-9.2,4.4-6.5,5.7-12.9,3.8-19.2s-6.7-12-14.4-17.1c-6.3-4.2-12.4-7.1-18.3-8.8-5.9-1.7-11.9-2.9-17.9-3.7l3-16.3c7,.8,14.1,2.3,21.4,4.6,7.2,2.3,14.6,6,22,11,12.2,8.1,19.7,17.4,22.3,27.9,2.7,10.4,.4,20.9-6.7,31.4-4,5.8-8.3,10.2-12.9,13-4.7,2.8-9.9,4.8-15.7,5.9-5.8,1.1-12.4,2-19.7,2.7-6.6,.7-11.8,1.7-15.9,2.9-4,1.2-7.4,2.9-10.1,5.2-2.7,2.2-5.4,5.3-8,9.2l-2.1,3.1-12.6-8.4Z"/>
            </g>
          </g>
        </g>
        <g class="dt">
          <g id="bx" data-name=" 31">
            <g id="by" data-name=" 31" class="dy">
              <path class="cv" d="M724.78,909.38c3-4.4,6.1-6.8,9.5-7.3,3.3-.5,6.7,.4,10,2.6,3.1,2.1,5.1,4.7,6.1,8,.9,3.3-.1,7.1-3.1,11.5-2.9,4.3-6.2,6.8-9.7,7.3s-6.8-.2-9.9-2.3c-3.3-2.2-5.3-5-6.1-8.3-.9-3.3,.2-7.1,3.2-11.5Zm23.4-25.6l3.3-4.9c3.4-5,6.8-9,10.2-12s7.3-5.2,11.8-6.8,10.1-2.7,16.7-3.4c7.7-.8,14-1.7,18.8-2.6,4.8-.9,8.8-2.4,12.1-4.5,3.2-2,6.2-5.1,9-9.2,4.4-6.5,5.7-12.9,3.8-19.2s-6.7-12-14.4-17.2c-6.3-4.2-12.4-7.1-18.3-8.8-5.9-1.7-11.9-2.9-17.9-3.7l3-16.3c7,.8,14.1,2.3,21.4,4.6,7.2,2.3,14.6,6,22,11,12.2,8.1,19.7,17.4,22.3,27.9,2.7,10.4,.4,20.9-6.7,31.4-4,5.8-8.3,10.2-12.9,13-4.7,2.8-9.9,4.8-15.7,5.9-5.8,1.1-12.4,2-19.7,2.7-6.6,.7-11.8,1.7-15.9,2.9-4,1.2-7.4,2.9-10.1,5.2-2.7,2.2-5.4,5.3-8,9.2l-2.1,3.1-12.7-8.3Z"/>
            </g>
          </g>
        </g>
        <g class="ds">
          <g id="ca" data-name=" 32">
            <g id="cb" data-name=" 32" class="dy">
              <path class="cv" d="M953.88,1063.38c3-4.4,6.1-6.8,9.5-7.3,3.3-.5,6.7,.4,10,2.6,3.1,2.1,5.1,4.7,6,8s-.1,7.1-3.1,11.5c-2.9,4.3-6.2,6.8-9.7,7.3s-6.8-.2-9.9-2.3c-3.3-2.2-5.3-5-6.1-8.3-.7-3.3,.4-7.1,3.3-11.5Zm23.4-25.6l3.3-4.9c3.4-5,6.8-9,10.2-12s7.3-5.2,11.8-6.8,10.1-2.7,16.7-3.4c7.7-.8,14-1.7,18.8-2.6,4.8-.9,8.8-2.4,12.1-4.5,3.2-2,6.2-5.1,9-9.2,4.4-6.5,5.7-12.9,3.8-19.2-1.9-6.3-6.7-12-14.4-17.2-6.3-4.2-12.4-7.1-18.3-8.8s-11.9-2.9-17.9-3.7l3-16.3c7,.8,14.1,2.3,21.4,4.6,7.2,2.3,14.6,6,22,11,12.2,8.1,19.7,17.4,22.3,27.9,2.7,10.4,.4,20.9-6.7,31.4-4,5.8-8.3,10.2-12.9,13-4.7,2.8-9.9,4.8-15.7,5.9-5.8,1.1-12.4,2-19.7,2.7-6.6,.7-11.8,1.7-15.9,2.9-4,1.2-7.4,2.9-10.1,5.2-2.7,2.2-5.4,5.3-8,9.2l-2.1,3.1-12.7-8.3Z"/>
            </g>
          </g>
        </g>
        <g class="dp">
          <g id="cd" data-name=" 33">
            <g id="ce" data-name=" 33" class="dy">
              <path class="cv" d="M989.78,23.58c3-4.4,6.1-6.8,9.5-7.3,3.3-.5,6.7,.4,10,2.6,3.1,2.1,5.1,4.7,6,8,.9,3.3-.1,7.1-3.1,11.5-2.9,4.3-6.2,6.8-9.7,7.3s-6.8-.2-9.9-2.3c-3.3-2.2-5.3-5-6.1-8.3-.7-3.3,.4-7.2,3.3-11.5Zm23.4-25.6l3.3-4.9c3.4-5,6.8-9,10.2-12,3.4-3,7.3-5.2,11.8-6.8,4.5-1.6,10.1-2.7,16.7-3.4,7.7-.8,14-1.7,18.8-2.6,4.8-.9,8.8-2.4,12-4.5,3.2-2,6.2-5.1,9-9.2,4.4-6.5,5.7-12.9,3.8-19.2-1.9-6.3-6.7-12-14.4-17.1-6.3-4.2-12.4-7.1-18.3-8.8-5.9-1.7-11.9-2.9-17.9-3.7l3-16.3c7,.8,14.1,2.3,21.4,4.6,7.2,2.3,14.6,6,22,11,12.2,8.1,19.7,17.4,22.3,27.9,2.7,10.4,.4,20.9-6.7,31.4-4,5.8-8.3,10.2-12.9,13-4.7,2.8-9.9,4.8-15.7,5.9-5.8,1.1-12.4,2-19.7,2.7-6.6,.7-11.8,1.7-15.9,2.9-4,1.2-7.4,2.9-10.1,5.2-2.7,2.2-5.4,5.3-8,9.2l-2.1,3.1-12.6-8.4Z"/>
            </g>
          </g>
        </g>
        <g class="dq">
          <g id="cg" data-name=" 34">
            <g id="ch" data-name=" 34" class="dy">
              <path class="cv" d="M754.58,1107.38c3-4.4,6.1-6.8,9.5-7.3,3.3-.5,6.7,.4,10,2.6,3.1,2.1,5.1,4.7,6,8s-.1,7.1-3.1,11.5c-2.9,4.3-6.2,6.8-9.7,7.3s-6.8-.2-9.9-2.3c-3.3-2.2-5.3-5-6.1-8.3-.7-3.3,.4-7.2,3.3-11.5Zm23.4-25.6l3.3-4.9c3.4-5,6.8-9,10.2-12s7.3-5.2,11.8-6.8c4.5-1.6,10.1-2.7,16.7-3.4,7.7-.8,14-1.7,18.8-2.6s8.8-2.4,12.1-4.5c3.2-2,6.2-5.1,9-9.2,4.4-6.5,5.7-12.9,3.8-19.2s-6.7-12-14.4-17.1c-6.3-4.2-12.4-7.1-18.3-8.8-5.9-1.7-11.9-2.9-17.9-3.7l3-16.3c7,.8,14.1,2.3,21.4,4.6s14.6,6,22,11c12.2,8.1,19.7,17.4,22.3,27.9,2.7,10.4,.4,20.9-6.7,31.4-4,5.8-8.3,10.2-12.9,13-4.7,2.8-9.9,4.8-15.7,5.9s-12.4,2-19.7,2.7c-6.6,.7-11.8,1.7-15.9,2.9-4,1.2-7.4,2.9-10.1,5.2-2.7,2.2-5.4,5.3-8,9.2l-2.1,3.1-12.7-8.4Z"/>
            </g>
          </g>
        </g>
      </g>
      <rect id="ci" data-name="Прямоугольник 9-2" class="cq" x="13.88" y="16.08" width="785.4" height="1010.5"/>
      <g class="dy">
        <path class="cw" d="M238.78,335.58h33.3c14.3,0,25,2,32.4,6,7.3,4,11,11,11,21.1,0,4.1-.6,7.7-1.9,11s-3.2,6-5.6,8.1-5.4,3.5-8.9,4.1v.7c3.6,.7,6.8,2,9.7,3.8,2.9,1.8,5.2,4.4,6.9,7.8,1.7,3.4,2.6,7.9,2.6,13.5,0,6.5-1.6,12.1-4.8,16.7-3.2,4.6-7.7,8.2-13.6,10.7s-12.9,3.7-21,3.7h-40.1v-107.2Zm22.7,42.4h13.2c6.6,0,11.2-1,13.7-3.1s3.8-5.1,3.8-9.2-1.5-7-4.5-8.8-7.8-2.7-14.2-2.7h-11.9v23.8h-.1Zm0,18v27.9h14.8c6.8,0,11.6-1.3,14.3-4,2.7-2.6,4-6.2,4-10.6,0-2.6-.6-5-1.8-7-1.2-2-3.1-3.6-5.9-4.7s-6.6-1.7-11.4-1.7h-14v.1Z"/>
        <path class="cw" d="M405.18,442.68l-7.8-25.5h-39l-7.8,25.5h-24.5l37.8-107.5h27.8l37.9,107.5h-24.4Zm-13.2-44.6l-7.8-24.9c-.5-1.7-1.1-3.8-1.9-6.4s-1.6-5.3-2.4-8-1.5-5.1-1.9-7.1c-.5,2-1.2,4.5-2,7.4-.9,3-1.7,5.7-2.5,8.4-.8,2.6-1.3,4.5-1.7,5.6l-7.7,24.9h27.9v.1Z"/>
        <path class="cw" d="M577.78,442.68h-134.7v-107.1h22.7v88.2h33.3v-88.2h22.9v88.2h33.3v-88.2h22.5v107.1Z"/>
      </g>
      <g class="dy">
        <path class="cw" d="M167.18,515.58v88.2h14.3v50.1h-21.9v-31.2H92.48v31.2h-21.9v-50.1h8.2c2.8-5.6,5.5-11.5,8.1-17.7s5-12.9,7.3-20c2.2-7.1,4.3-14.9,6.1-23.2,1.8-8.3,3.3-17.5,4.5-27.3h62.4Zm-22.7,18.9h-21.7c-.7,5.2-1.7,10.7-3,16.6-1.3,5.9-2.8,11.8-4.5,17.9-1.7,6.1-3.7,12.1-5.8,18-2.1,5.9-4.4,11.5-6.8,16.8h41.8v-69.3Z"/>
        <path class="cw" d="M197.88,515.58h20.4v51.7c0,2.5,0,5.3-.1,8.4s-.2,6.1-.3,9c-.1,3-.2,5.5-.3,7.7s-.2,3.7-.3,4.4h.4l49.4-81.3h27.2v107.1h-20.2v-51.4c0-2.7,0-5.7,.1-8.9s.2-6.3,.4-9.4c.2-3,.3-5.7,.5-7.9s.2-3.7,.3-4.4h-.6l-49.7,82h-27.3v-107h.1Z"/>
        <path class="cw" d="M395.38,540.58c0,7.2-2.6,13-7.7,17.4s-11.6,7.2-19.5,8.3v.4c9.8,1,17.3,3.7,22.6,8.1,5.3,4.4,7.9,10.2,7.9,17.4,0,6.3-1.7,11.8-5.1,16.6s-8.5,8.6-15.2,11.3-15,4.1-24.8,4.1c-8.1,0-15.3-.5-21.6-1.5-6.3-1-11.7-2.4-16.3-4.3v-19c3.1,1.5,6.6,2.7,10.5,3.8s7.8,1.9,11.8,2.4c4,.6,7.7,.8,11.1,.8,9.5,0,16.3-1.4,20.6-4.1,4.3-2.7,6.4-6.6,6.4-11.6s-3.1-8.9-9.3-11.2c-6.2-2.3-14.6-3.5-25-3.5h-10v-17.7h9c8.5,0,15.1-.5,19.8-1.6,4.7-1.1,8-2.7,9.9-4.8s2.8-4.6,2.8-7.5c0-3.7-1.6-6.6-4.9-8.8s-8.1-3.3-14.6-3.3c-5.6,0-10.8,.8-15.6,2.4-4.8,1.6-9.4,3.7-13.5,6.3l-9.9-15.2c3.7-2.4,7.6-4.5,11.8-6.2s8.8-3.1,13.7-4.1c5-1,10.5-1.4,16.7-1.4,8.1,0,14.9,1.1,20.7,3.4,5.7,2.3,10.1,5.4,13.1,9.4,3.1,4,4.6,8.6,4.6,13.7Z"/>
        <path class="cw" d="M484.18,622.68l-7.8-25.5h-39l-7.8,25.5h-24.5l37.8-107.5h27.8l37.9,107.5h-24.4Zm-13.2-44.6l-7.8-24.9c-.5-1.7-1.1-3.8-1.9-6.4s-1.6-5.3-2.4-8-1.5-5.1-1.9-7.1c-.5,2-1.2,4.5-2,7.4-.9,3-1.7,5.7-2.5,8.4-.8,2.6-1.3,4.5-1.7,5.6l-7.7,24.9h27.9v.1Z"/>
        <path class="cw" d="M522.08,515.58h20.4v51.7c0,2.5,0,5.3-.1,8.4s-.2,6.1-.3,9c-.1,3-.2,5.5-.3,7.7s-.2,3.7-.3,4.4h.4l49.4-81.3h27.2v107.1h-20.2v-51.4c0-2.7,0-5.7,.1-8.9s.2-6.3,.4-9.4c.2-3,.3-5.7,.5-7.9s.2-3.7,.3-4.4h-.6l-49.7,82h-27.3v-107h.1Zm86.3-35.2c-.5,5.2-2,9.7-4.4,13.7s-6.1,7-11.2,9.2c-5.1,2.2-11.9,3.3-20.5,3.3s-15.7-1.1-20.7-3.2c-4.9-2.1-8.4-5.2-10.5-9.1s-3.4-8.6-3.8-14h20c.4,5.5,1.8,9.2,4.2,11s6.1,2.7,11.3,2.7c4.3,0,7.8-1,10.5-2.9,2.7-2,4.4-5.5,4.9-10.7h20.2Z"/>
        <path class="cw" d="M733.28,622.68h-22.6v-46.2h-42.4v46.2h-22.7v-107.1h22.7v42h42.4v-42h22.6v107.1Z"/>
      </g>
      <rect id="cj" data-name="Прямоугольник 10" class="cp" x="757.88" y="1039.28" width="83" height="7"/>
      <path id="ck" data-name="Прямоугольник 4" class="cr" d="M7.88,7.88H1595.28v1023.5H7.88V7.88Z"/>
      <path id="cl" data-name="Прямоугольник 5" class="cu" d="M794.88,7.88h9v1023.5h-9V7.88Z"/>
      <path id="cm" data-name="Прямоугольник 6" class="ct" d="M742.88,1046.88h113v13h-113v-13Z"/>
      <path id="cn" data-name="Прямоугольник 7" class="ct" d="M840.88,1029.88h15v16h-15v-16Z"/>
      <path id="co" data-name="Прямоугольник 8" class="ct" d="M742.88,1029.88h15v16h-15v-16Z"/>
    </g>
  </g>
</svg>