<?xml version="1.0" encoding="UTF-8"?>
<svg id="b" data-name="Слой 2" xmlns="http://www.w3.org/2000/svg" width="1603.16" height="1060.38" xmlns:xlink="http://www.w3.org/1999/xlink" viewBox="0 0 1603.16 1060.38">
  <defs>
    <style>
      .ao {
        stroke: #fff;
      }

      .ao, .ap {
        fill: #fff;
      }

      .ao, .aq {
        stroke-width: 15.76px;
      }

      .ar, .aq {
        fill: none;
      }

      .as {
        fill-rule: evenodd;
      }

      .as, .aq, .at {
        stroke: #000;
      }

      .au {
        fill: #a7a6a6;
      }

      .av {
        clip-path: url(#f);
      }

      .aw {
        isolation: isolate;
      }
    </style>
    <clipPath id="f">
      <rect class="ar" x="803.88" y="16.11" width="783.85" height="1007.73"/>
    </clipPath>
  </defs>
  <g id="c" data-name="Группа 2">
    <rect id="d" data-name="Прямоугольник 9" class="ap" x="799.38" y="16.11" width="789.13" height="1007.73"/>
    <g id="e" data-name="Группа 8">
      <g class="av">
        <g id="g" data-name=" 2" class="aw">
          <path class="au" d="M1220.85,177.03c2.97-4.39,6.13-6.82,9.47-7.28,3.34-.46,6.66,.4,9.95,2.59,3.1,2.06,5.12,4.74,6.05,8.04,.93,3.3-.09,7.15-3.06,11.54-2.93,4.33-6.16,6.75-9.68,7.28-3.52,.52-6.83-.25-9.94-2.31-3.29-2.19-5.32-4.96-6.07-8.33-.75-3.36,.34-7.21,3.27-11.54Zm23.42-25.63l3.31-4.89c3.4-5.02,6.79-9.01,10.18-11.99,3.39-2.97,7.34-5.24,11.84-6.8,4.5-1.56,10.05-2.68,16.68-3.38,7.7-.79,13.95-1.66,18.77-2.6,4.81-.94,8.83-2.43,12.05-4.47,3.22-2.04,6.21-5.1,8.97-9.18,4.42-6.52,5.68-12.93,3.8-19.23-1.88-6.3-6.69-12.02-14.41-17.15-6.27-4.17-12.37-7.08-18.31-8.76-5.94-1.67-11.9-2.9-17.88-3.7l3.03-16.27c7.02,.75,14.14,2.3,21.36,4.65,7.22,2.35,14.57,6,22.04,10.97,12.22,8.12,19.66,17.41,22.31,27.85,2.65,10.45,.43,20.91-6.66,31.38-3.95,5.83-8.27,10.17-12.95,13.02-4.68,2.85-9.92,4.82-15.72,5.92-5.8,1.1-12.37,1.99-19.71,2.66-6.56,.74-11.85,1.7-15.87,2.89-4.02,1.19-7.39,2.91-10.1,5.15-2.71,2.24-5.39,5.31-8.02,9.2l-2.1,3.1-12.63-8.39Z"/>
        </g>
        <g id="h" data-name=" 3" class="aw">
          <path class="au" d="M1019.92,220.32c2.97-4.39,6.13-6.81,9.47-7.28,3.34-.46,6.66,.4,9.95,2.59,3.1,2.06,5.12,4.74,6.05,8.04,.93,3.3-.09,7.15-3.06,11.54-2.93,4.33-6.16,6.75-9.68,7.28-3.52,.52-6.84-.25-9.94-2.31-3.29-2.19-5.31-4.96-6.06-8.33-.75-3.36,.34-7.21,3.27-11.54Zm23.42-25.63l3.31-4.89c3.4-5.02,6.79-9.01,10.18-11.99,3.39-2.97,7.34-5.24,11.84-6.8,4.5-1.56,10.06-2.68,16.68-3.38,7.7-.79,13.96-1.66,18.77-2.6,4.81-.94,8.83-2.43,12.05-4.47,3.22-2.04,6.21-5.1,8.97-9.18,4.42-6.52,5.68-12.93,3.8-19.23-1.88-6.3-6.69-12.02-14.41-17.15-6.27-4.17-12.37-7.08-18.31-8.76-5.94-1.67-11.9-2.9-17.88-3.7l3.03-16.27c7.02,.75,14.14,2.3,21.36,4.65,7.23,2.35,14.57,6,22.04,10.97,12.22,8.12,19.66,17.41,22.31,27.85,2.65,10.45,.44,20.91-6.66,31.38-3.95,5.83-8.27,10.17-12.95,13.02-4.68,2.85-9.92,4.82-15.72,5.92-5.8,1.1-12.37,1.99-19.71,2.66-6.56,.74-11.85,1.7-15.87,2.89-4.02,1.19-7.39,2.91-10.1,5.16-2.71,2.24-5.39,5.31-8.02,9.2l-2.1,3.1-12.63-8.39Z"/>
        </g>
        <g id="i" data-name=" 4" class="aw">
          <path class="au" d="M824.9,267.74c2.97-4.39,6.13-6.82,9.47-7.28,3.34-.46,6.66,.4,9.95,2.59,3.1,2.06,5.12,4.74,6.05,8.04,.93,3.3-.09,7.15-3.06,11.54-2.93,4.33-6.16,6.75-9.68,7.28-3.52,.52-6.84-.25-9.94-2.31-3.29-2.19-5.32-4.96-6.07-8.33-.75-3.36,.34-7.21,3.27-11.54Zm23.42-25.63l3.31-4.89c3.4-5.02,6.79-9.01,10.18-11.99,3.39-2.97,7.34-5.24,11.84-6.8,4.5-1.56,10.06-2.68,16.68-3.38,7.7-.79,13.96-1.66,18.77-2.6,4.81-.94,8.83-2.43,12.05-4.47,3.22-2.04,6.21-5.1,8.97-9.18,4.42-6.52,5.68-12.93,3.8-19.23-1.89-6.3-6.69-12.02-14.41-17.15-6.27-4.17-12.37-7.08-18.31-8.76-5.94-1.67-11.9-2.9-17.88-3.7l3.03-16.27c7.02,.75,14.14,2.3,21.36,4.65,7.22,2.35,14.57,6,22.04,10.97,12.22,8.12,19.66,17.41,22.31,27.85,2.65,10.45,.43,20.91-6.66,31.38-3.95,5.83-8.27,10.17-12.95,13.02-4.68,2.85-9.92,4.82-15.72,5.92-5.8,1.1-12.37,1.99-19.7,2.66-6.56,.74-11.85,1.7-15.87,2.89-4.02,1.19-7.39,2.91-10.1,5.16-2.71,2.24-5.39,5.31-8.02,9.2l-2.1,3.1-12.63-8.39Z"/>
        </g>
        <g id="j" data-name=" 5" class="aw">
          <path class="au" d="M623.23,310.92c2.97-4.39,6.13-6.82,9.47-7.28,3.34-.46,6.66,.4,9.95,2.59,3.1,2.06,5.12,4.74,6.05,8.04,.93,3.3-.09,7.15-3.06,11.54-2.93,4.33-6.16,6.75-9.68,7.28-3.52,.52-6.84-.25-9.94-2.31-3.29-2.19-5.31-4.96-6.06-8.33-.75-3.36,.34-7.21,3.27-11.54Zm23.42-25.63l3.31-4.89c3.4-5.02,6.79-9.01,10.18-11.99,3.39-2.97,7.34-5.24,11.84-6.8,4.5-1.56,10.06-2.68,16.68-3.38,7.7-.79,13.95-1.66,18.77-2.6,4.81-.94,8.83-2.43,12.05-4.47,3.22-2.04,6.21-5.1,8.97-9.18,4.42-6.52,5.68-12.93,3.8-19.23-1.88-6.3-6.69-12.02-14.41-17.15-6.27-4.17-12.37-7.08-18.31-8.76-5.94-1.67-11.9-2.9-17.88-3.7l3.03-16.27c7.02,.75,14.14,2.3,21.36,4.65,7.23,2.35,14.57,6,22.04,10.97,12.22,8.12,19.65,17.41,22.31,27.85,2.65,10.45,.43,20.91-6.66,31.38-3.95,5.83-8.27,10.17-12.95,13.02-4.68,2.85-9.92,4.82-15.72,5.92-5.8,1.1-12.37,1.99-19.71,2.66-6.56,.74-11.85,1.7-15.87,2.89-4.02,1.19-7.39,2.91-10.1,5.16-2.71,2.24-5.39,5.31-8.02,9.2l-2.1,3.1-12.63-8.39Z"/>
        </g>
        <g id="k" data-name=" 6" class="aw">
          <path class="au" d="M1415.87,129.61c2.97-4.39,6.13-6.82,9.47-7.28,3.34-.46,6.66,.4,9.95,2.59,3.1,2.06,5.12,4.74,6.05,8.04,.93,3.3-.09,7.15-3.06,11.54-2.93,4.33-6.16,6.75-9.68,7.28-3.52,.52-6.84-.25-9.94-2.31-3.29-2.19-5.32-4.96-6.07-8.33-.75-3.36,.34-7.21,3.27-11.54Zm23.42-25.63l3.31-4.89c3.4-5.02,6.79-9.01,10.18-11.99,3.39-2.97,7.34-5.24,11.84-6.8,4.5-1.56,10.05-2.68,16.68-3.38,7.7-.79,13.96-1.66,18.77-2.6,4.81-.94,8.83-2.43,12.05-4.47,3.22-2.04,6.21-5.1,8.97-9.18,4.42-6.52,5.68-12.93,3.8-19.23-1.88-6.3-6.69-12.02-14.41-17.15-6.27-4.17-12.37-7.08-18.31-8.76-5.94-1.67-11.9-2.9-17.88-3.7l3.03-16.27c7.02,.75,14.14,2.3,21.36,4.65,7.22,2.35,14.57,6,22.04,10.97,12.22,8.12,19.66,17.41,22.31,27.85,2.65,10.45,.43,20.91-6.66,31.38-3.95,5.83-8.27,10.17-12.95,13.02-4.68,2.85-9.92,4.82-15.72,5.92-5.8,1.1-12.37,1.99-19.7,2.66-6.56,.74-11.85,1.7-15.87,2.89-4.02,1.19-7.39,2.91-10.1,5.16-2.71,2.24-5.39,5.31-8.02,9.2l-2.1,3.1-12.63-8.39Z"/>
        </g>
        <g id="l" data-name=" 7" class="aw">
          <path class="au" d="M1250.51,373.75c2.97-4.39,6.13-6.81,9.47-7.28,3.34-.46,6.66,.4,9.95,2.59,3.1,2.06,5.12,4.74,6.05,8.04,.93,3.3-.09,7.15-3.06,11.54-2.93,4.33-6.16,6.75-9.68,7.28-3.52,.52-6.83-.25-9.94-2.31-3.29-2.19-5.31-4.96-6.07-8.33-.75-3.36,.34-7.21,3.27-11.54Zm23.42-25.63l3.31-4.89c3.4-5.02,6.79-9.01,10.19-11.99,3.39-2.97,7.34-5.24,11.84-6.8,4.5-1.56,10.05-2.68,16.68-3.38,7.7-.79,13.95-1.66,18.77-2.6,4.81-.94,8.83-2.43,12.05-4.47,3.22-2.04,6.21-5.1,8.97-9.18,4.42-6.52,5.68-12.93,3.8-19.23-1.88-6.3-6.69-12.02-14.41-17.15-6.27-4.17-12.37-7.08-18.31-8.76-5.94-1.67-11.9-2.9-17.88-3.7l3.03-16.27c7.02,.75,14.14,2.3,21.36,4.65,7.22,2.35,14.57,6,22.04,10.97,12.22,8.12,19.65,17.41,22.31,27.85,2.65,10.45,.43,20.91-6.66,31.38-3.95,5.83-8.27,10.17-12.95,13.02-4.68,2.85-9.92,4.82-15.72,5.92-5.8,1.1-12.37,1.99-19.71,2.66-6.56,.74-11.85,1.7-15.87,2.89-4.02,1.19-7.39,2.91-10.1,5.15-2.71,2.24-5.39,5.31-8.02,9.2l-2.1,3.1-12.63-8.39Z"/>
        </g>
        <g id="m" data-name=" 8" class="aw">
          <path class="au" d="M1085.15,617.9c2.97-4.39,6.13-6.82,9.47-7.28,3.34-.46,6.66,.4,9.95,2.59,3.1,2.06,5.12,4.74,6.05,8.04,.93,3.3-.09,7.15-3.06,11.54-2.93,4.33-6.16,6.75-9.68,7.28-3.52,.52-6.84-.25-9.94-2.31-3.29-2.19-5.32-4.96-6.07-8.33-.75-3.36,.34-7.21,3.27-11.54Zm23.42-25.63l3.31-4.89c3.4-5.02,6.79-9.01,10.18-11.99,3.39-2.97,7.34-5.24,11.84-6.8,4.5-1.56,10.06-2.68,16.68-3.38,7.7-.79,13.96-1.66,18.77-2.6,4.81-.94,8.83-2.43,12.05-4.47,3.22-2.04,6.21-5.1,8.97-9.18,4.42-6.52,5.68-12.93,3.8-19.23-1.88-6.3-6.69-12.02-14.41-17.15-6.27-4.17-12.37-7.08-18.31-8.76-5.94-1.67-11.9-2.9-17.88-3.7l3.03-16.27c7.02,.75,14.14,2.3,21.36,4.65,7.23,2.35,14.57,6,22.04,10.97,12.22,8.12,19.66,17.41,22.31,27.85,2.65,10.45,.43,20.91-6.66,31.38-3.95,5.83-8.27,10.17-12.95,13.02-4.68,2.85-9.92,4.82-15.72,5.92-5.8,1.1-12.37,1.99-19.71,2.66-6.56,.74-11.85,1.7-15.87,2.89-4.02,1.19-7.39,2.91-10.1,5.15-2.71,2.24-5.39,5.31-8.02,9.2l-2.1,3.1-12.63-8.39Z"/>
        </g>
        <g id="n" data-name=" 9" class="aw">
          <path class="au" d="M919.79,862.04c2.97-4.39,6.13-6.81,9.47-7.28,3.34-.46,6.66,.4,9.95,2.59,3.1,2.06,5.12,4.74,6.05,8.04,.93,3.3-.09,7.15-3.06,11.54-2.93,4.33-6.16,6.75-9.68,7.28-3.52,.52-6.83-.25-9.94-2.31-3.29-2.19-5.31-4.96-6.07-8.33-.75-3.36,.34-7.21,3.27-11.54Zm23.42-25.63l3.31-4.89c3.4-5.02,6.79-9.01,10.19-11.99,3.39-2.97,7.34-5.24,11.84-6.8,4.5-1.56,10.05-2.68,16.68-3.38,7.7-.79,13.95-1.66,18.77-2.6,4.81-.94,8.83-2.43,12.05-4.47,3.22-2.04,6.21-5.1,8.97-9.18,4.42-6.52,5.68-12.93,3.8-19.23-1.88-6.3-6.69-12.02-14.41-17.15-6.27-4.17-12.37-7.08-18.31-8.75-5.94-1.67-11.9-2.9-17.88-3.7l3.03-16.27c7.02,.75,14.14,2.3,21.36,4.65,7.22,2.35,14.57,6,22.04,10.97,12.22,8.12,19.65,17.41,22.31,27.85,2.65,10.45,.43,20.91-6.66,31.38-3.95,5.83-8.27,10.17-12.95,13.02-4.68,2.84-9.92,4.82-15.72,5.92-5.8,1.1-12.37,1.99-19.71,2.66-6.56,.74-11.85,1.7-15.87,2.89-4.02,1.19-7.39,2.91-10.1,5.16-2.71,2.24-5.39,5.31-8.02,9.2l-2.1,3.1-12.63-8.39Z"/>
        </g>
        <g id="o" data-name=" 11" class="aw">
          <path class="au" d="M1485.73,527.75c2.97-4.39,6.13-6.81,9.47-7.28,3.34-.46,6.66,.4,9.95,2.59,3.1,2.06,5.12,4.74,6.05,8.04,.93,3.3-.09,7.15-3.06,11.54-2.93,4.33-6.16,6.75-9.68,7.28-3.52,.52-6.84-.25-9.94-2.31-3.29-2.19-5.32-4.96-6.06-8.33-.75-3.36,.34-7.21,3.27-11.54Zm23.42-25.63l3.31-4.89c3.4-5.02,6.79-9.01,10.18-11.99,3.39-2.97,7.34-5.24,11.84-6.8,4.5-1.56,10.06-2.68,16.68-3.38,7.7-.79,13.96-1.66,18.77-2.6,4.81-.94,8.83-2.43,12.05-4.47,3.22-2.04,6.21-5.1,8.97-9.18,4.42-6.52,5.68-12.93,3.8-19.23-1.88-6.3-6.69-12.02-14.41-17.15-6.27-4.17-12.37-7.08-18.31-8.76-5.94-1.67-11.9-2.9-17.88-3.7l3.03-16.27c7.02,.75,14.14,2.3,21.36,4.65,7.22,2.35,14.57,6,22.04,10.97,12.22,8.12,19.66,17.41,22.31,27.85,2.65,10.45,.43,20.91-6.66,31.38-3.95,5.83-8.27,10.17-12.95,13.02-4.68,2.85-9.92,4.82-15.72,5.92-5.8,1.1-12.37,1.99-19.71,2.66-6.56,.74-11.85,1.7-15.87,2.89-4.02,1.19-7.39,2.91-10.1,5.16-2.71,2.24-5.39,5.31-8.02,9.2l-2.1,3.1-12.63-8.39Z"/>
        </g>
        <g id="p" data-name=" 12" class="aw">
          <path class="au" d="M1320.37,771.9c2.97-4.39,6.13-6.81,9.47-7.28,3.34-.46,6.66,.4,9.95,2.59,3.1,2.06,5.12,4.74,6.05,8.04,.93,3.3-.09,7.15-3.06,11.54-2.93,4.33-6.16,6.75-9.68,7.28-3.52,.52-6.84-.25-9.94-2.31-3.29-2.19-5.31-4.96-6.06-8.33-.75-3.36,.34-7.21,3.27-11.54Zm23.42-25.63l3.31-4.89c3.4-5.02,6.79-9.01,10.18-11.99,3.39-2.97,7.34-5.24,11.84-6.8,4.5-1.56,10.06-2.68,16.68-3.38,7.7-.79,13.96-1.66,18.77-2.6,4.81-.94,8.83-2.43,12.05-4.47,3.22-2.04,6.21-5.1,8.97-9.18,4.42-6.52,5.68-12.93,3.8-19.23-1.88-6.3-6.69-12.02-14.41-17.15-6.27-4.17-12.37-7.08-18.31-8.76-5.94-1.67-11.9-2.9-17.88-3.7l3.03-16.27c7.02,.75,14.14,2.3,21.36,4.65,7.22,2.35,14.57,6,22.04,10.97,12.22,8.12,19.66,17.41,22.31,27.86,2.65,10.45,.44,20.91-6.66,31.38-3.95,5.83-8.27,10.17-12.95,13.02-4.68,2.85-9.92,4.82-15.72,5.92-5.8,1.1-12.37,1.99-19.71,2.66-6.56,.74-11.85,1.7-15.87,2.89-4.02,1.19-7.39,2.91-10.1,5.16-2.71,2.24-5.39,5.31-8.02,9.2l-2.1,3.1-12.63-8.39Z"/>
        </g>
        <g id="q" data-name=" 13" class="aw">
          <path class="au" d="M1155.01,1016.04c2.97-4.39,6.13-6.81,9.47-7.28,3.34-.46,6.66,.4,9.95,2.59,3.1,2.06,5.12,4.74,6.05,8.04,.93,3.3-.09,7.15-3.06,11.54-2.93,4.33-6.16,6.75-9.68,7.28-3.52,.52-6.83-.25-9.94-2.31-3.29-2.19-5.31-4.96-6.07-8.33-.75-3.36,.34-7.21,3.27-11.54Zm23.42-25.63l3.31-4.89c3.4-5.02,6.79-9.01,10.19-11.99,3.39-2.97,7.34-5.24,11.84-6.8,4.5-1.56,10.05-2.68,16.68-3.38,7.7-.79,13.95-1.66,18.77-2.6,4.81-.94,8.83-2.43,12.05-4.47,3.22-2.04,6.21-5.1,8.97-9.18,4.42-6.52,5.68-12.93,3.8-19.23-1.88-6.3-6.69-12.02-14.41-17.15-6.27-4.17-12.37-7.08-18.31-8.76-5.94-1.67-11.9-2.9-17.88-3.7l3.03-16.27c7.02,.75,14.14,2.3,21.36,4.65,7.22,2.35,14.57,6,22.04,10.97,12.22,8.12,19.66,17.41,22.31,27.86,2.65,10.45,.43,20.91-6.66,31.38-3.95,5.83-8.27,10.17-12.95,13.02-4.68,2.85-9.92,4.82-15.72,5.92-5.8,1.1-12.37,1.99-19.7,2.66-6.56,.74-11.85,1.7-15.87,2.89-4.02,1.19-7.39,2.91-10.1,5.16-2.71,2.24-5.39,5.31-8.02,9.2l-2.1,3.1-12.63-8.39Z"/>
        </g>
        <g id="r" data-name=" 16" class="aw">
          <path class="au" d="M1564.67,930.9c2.97-4.39,6.13-6.81,9.47-7.28,3.34-.46,6.66,.4,9.95,2.59,3.1,2.06,5.12,4.74,6.05,8.04,.93,3.3-.09,7.15-3.06,11.54-2.93,4.33-6.16,6.75-9.68,7.28-3.52,.52-6.84-.25-9.94-2.31-3.29-2.19-5.32-4.96-6.07-8.33-.75-3.36,.34-7.21,3.27-11.54Zm23.42-25.63l3.31-4.89c3.4-5.02,6.79-9.01,10.18-11.99,3.39-2.97,7.34-5.24,11.84-6.8,4.5-1.56,10.06-2.68,16.68-3.38,7.7-.79,13.96-1.66,18.77-2.6,4.81-.94,8.83-2.43,12.05-4.47,3.22-2.04,6.21-5.1,8.97-9.18,4.42-6.52,5.68-12.93,3.8-19.23-1.89-6.3-6.69-12.02-14.41-17.15-6.27-4.17-12.37-7.08-18.31-8.76-5.94-1.67-11.9-2.9-17.88-3.7l3.03-16.27c7.02,.75,14.14,2.3,21.36,4.65,7.22,2.35,14.57,6,22.04,10.97,12.22,8.12,19.66,17.41,22.31,27.85,2.65,10.45,.43,20.91-6.66,31.38-3.95,5.83-8.27,10.17-12.95,13.02-4.68,2.85-9.92,4.82-15.72,5.92-5.8,1.1-12.37,1.99-19.71,2.66-6.56,.74-11.85,1.7-15.87,2.89-4.02,1.19-7.39,2.91-10.1,5.16-2.71,2.24-5.39,5.31-8.02,9.2l-2.1,3.1-12.63-8.39Z"/>
        </g>
        <g id="s" data-name=" 19" class="aw">
          <path class="au" d="M1528.13,728.75c2.97-4.39,6.13-6.81,9.47-7.28,3.34-.46,6.66,.4,9.95,2.59,3.1,2.06,5.12,4.74,6.05,8.04,.93,3.3-.09,7.15-3.06,11.54-2.93,4.33-6.16,6.75-9.68,7.28-3.52,.52-6.83-.25-9.94-2.31-3.29-2.19-5.31-4.96-6.07-8.33-.75-3.36,.34-7.21,3.27-11.54Zm23.42-25.63l3.31-4.89c3.4-5.02,6.79-9.01,10.19-11.99,3.39-2.97,7.34-5.24,11.84-6.8,4.5-1.56,10.05-2.68,16.68-3.38,7.7-.79,13.95-1.66,18.77-2.6,4.81-.94,8.83-2.43,12.05-4.47,3.22-2.04,6.21-5.1,8.97-9.18,4.42-6.52,5.68-12.93,3.8-19.23-1.88-6.3-6.69-12.02-14.41-17.15-6.27-4.17-12.37-7.08-18.31-8.76-5.94-1.67-11.9-2.9-17.88-3.7l3.03-16.27c7.02,.75,14.14,2.3,21.36,4.65,7.22,2.35,14.57,6,22.04,10.97,12.22,8.12,19.66,17.41,22.31,27.85,2.65,10.45,.43,20.91-6.66,31.38-3.95,5.83-8.27,10.17-12.95,13.02-4.68,2.85-9.92,4.82-15.72,5.92-5.8,1.1-12.37,1.99-19.71,2.66-6.56,.74-11.85,1.7-15.87,2.89-4.02,1.19-7.39,2.91-10.1,5.15-2.71,2.24-5.39,5.31-8.02,9.2l-2.1,3.1-12.63-8.39Z"/>
        </g>
        <g id="t" data-name=" 20" class="aw">
          <path class="au" d="M1362.77,972.9c2.97-4.39,6.13-6.82,9.47-7.28,3.34-.46,6.66,.4,9.95,2.59,3.1,2.06,5.12,4.74,6.05,8.04,.93,3.3-.09,7.15-3.06,11.54-2.93,4.33-6.16,6.75-9.68,7.28-3.52,.52-6.84-.25-9.94-2.31-3.29-2.19-5.31-4.96-6.06-8.33-.75-3.36,.34-7.21,3.27-11.54Zm23.42-25.63l3.31-4.89c3.4-5.02,6.79-9.01,10.19-11.99,3.39-2.97,7.34-5.24,11.84-6.8,4.5-1.56,10.05-2.68,16.68-3.38,7.7-.79,13.95-1.66,18.77-2.6,4.81-.94,8.83-2.43,12.05-4.47,3.22-2.04,6.21-5.1,8.97-9.18,4.42-6.52,5.68-12.93,3.8-19.23-1.88-6.3-6.69-12.02-14.41-17.15-6.27-4.16-12.37-7.08-18.31-8.75-5.94-1.67-11.9-2.9-17.88-3.7l3.03-16.27c7.02,.75,14.14,2.3,21.36,4.65,7.22,2.35,14.57,6,22.04,10.97,12.22,8.12,19.65,17.41,22.31,27.86,2.65,10.45,.43,20.91-6.66,31.38-3.95,5.83-8.27,10.17-12.95,13.02-4.68,2.85-9.92,4.82-15.72,5.92-5.8,1.1-12.37,1.99-19.71,2.66-6.56,.74-11.85,1.7-15.87,2.89-4.02,1.19-7.39,2.91-10.1,5.16-2.71,2.24-5.39,5.31-8.02,9.2l-2.1,3.1-12.63-8.39Z"/>
        </g>
        <g id="u" data-name=" 22" class="aw">
          <path class="au" d="M788.2,67.05c2.97-4.39,6.13-6.81,9.47-7.28,3.34-.46,6.66,.4,9.95,2.59,3.1,2.06,5.12,4.74,6.05,8.04,.93,3.3-.09,7.15-3.06,11.54-2.93,4.33-6.16,6.75-9.68,7.28-3.52,.52-6.83-.25-9.94-2.31-3.29-2.19-5.31-4.96-6.07-8.33-.75-3.36,.34-7.21,3.27-11.54Zm23.42-25.63l3.31-4.89c3.4-5.02,6.79-9.01,10.19-11.99,3.39-2.97,7.34-5.24,11.84-6.8,4.5-1.56,10.05-2.68,16.68-3.38,7.7-.79,13.95-1.66,18.77-2.6,4.81-.94,8.83-2.43,12.05-4.47,3.22-2.04,6.21-5.1,8.97-9.18,4.42-6.52,5.68-12.93,3.8-19.23-1.88-6.3-6.69-12.02-14.41-17.15-6.27-4.17-12.37-7.08-18.31-8.76-5.94-1.67-11.9-2.9-17.88-3.7l3.03-16.27c7.02,.75,14.14,2.3,21.36,4.65,7.22,2.35,14.57,6,22.04,10.97,12.22,8.12,19.66,17.41,22.31,27.85,2.65,10.45,.43,20.91-6.66,31.38-3.95,5.83-8.27,10.17-12.95,13.02-4.68,2.85-9.92,4.82-15.72,5.92-5.8,1.1-12.37,1.99-19.71,2.66-6.56,.74-11.85,1.7-15.87,2.89-4.02,1.19-7.39,2.91-10.1,5.15-2.71,2.24-5.39,5.31-8.02,9.2l-2.1,3.1-12.63-8.39Z"/>
        </g>
        <g id="v" data-name=" 23" class="aw">
          <path class="au" d="M1445.53,326.34c2.97-4.39,6.13-6.82,9.47-7.28,3.34-.46,6.66,.4,9.95,2.59,3.1,2.06,5.12,4.74,6.05,8.04,.93,3.3-.09,7.15-3.06,11.54-2.93,4.33-6.16,6.75-9.68,7.28-3.52,.52-6.84-.25-9.94-2.31-3.29-2.19-5.31-4.96-6.06-8.33-.75-3.36,.34-7.21,3.27-11.54Zm23.42-25.63l3.31-4.89c3.4-5.02,6.79-9.01,10.19-11.99,3.39-2.97,7.34-5.24,11.84-6.8,4.5-1.56,10.05-2.68,16.68-3.38,7.7-.79,13.95-1.66,18.77-2.6,4.81-.94,8.83-2.43,12.05-4.47,3.22-2.04,6.21-5.1,8.97-9.18,4.42-6.52,5.68-12.93,3.8-19.23-1.88-6.3-6.69-12.02-14.41-17.15-6.27-4.17-12.37-7.08-18.31-8.76-5.94-1.67-11.9-2.9-17.88-3.7l3.03-16.27c7.02,.75,14.14,2.3,21.36,4.65,7.22,2.35,14.57,6,22.04,10.97,12.22,8.12,19.65,17.41,22.31,27.85,2.65,10.45,.43,20.91-6.66,31.38-3.95,5.83-8.27,10.17-12.95,13.02-4.68,2.85-9.92,4.82-15.72,5.92-5.8,1.1-12.37,1.99-19.71,2.66-6.56,.74-11.85,1.7-15.87,2.89-4.02,1.19-7.39,2.91-10.1,5.15-2.71,2.24-5.39,5.31-8.02,9.2l-2.1,3.1-12.63-8.39Z"/>
        </g>
        <g id="w" data-name=" 24" class="aw">
          <path class="au" d="M1055.49,421.17c2.97-4.39,6.13-6.81,9.47-7.28,3.34-.46,6.66,.4,9.95,2.59,3.1,2.06,5.12,4.74,6.05,8.04,.93,3.3-.09,7.15-3.06,11.54-2.93,4.33-6.16,6.75-9.68,7.28-3.52,.52-6.83-.25-9.94-2.31-3.29-2.19-5.31-4.96-6.07-8.33s.34-7.21,3.27-11.54Zm23.42-25.63l3.31-4.89c3.4-5.02,6.79-9.01,10.18-11.99,3.39-2.97,7.34-5.24,11.83-6.8,4.5-1.56,10.06-2.68,16.68-3.38,7.7-.79,13.95-1.66,18.77-2.6,4.81-.94,8.83-2.43,12.05-4.47,3.22-2.04,6.21-5.1,8.97-9.18,4.42-6.52,5.68-12.93,3.8-19.23-1.88-6.3-6.69-12.02-14.41-17.15-6.27-4.17-12.37-7.08-18.31-8.76-5.94-1.67-11.9-2.9-17.88-3.7l3.03-16.27c7.02,.75,14.14,2.3,21.36,4.65,7.23,2.35,14.57,6,22.04,10.97,12.22,8.12,19.66,17.41,22.31,27.86,2.65,10.45,.43,20.91-6.66,31.38-3.95,5.83-8.27,10.17-12.95,13.02-4.68,2.85-9.92,4.82-15.72,5.92-5.8,1.1-12.37,1.99-19.71,2.66-6.56,.74-11.85,1.7-15.87,2.89-4.02,1.19-7.39,2.91-10.1,5.16-2.71,2.24-5.39,5.31-8.02,9.2l-2.1,3.1-12.63-8.39Z"/>
        </g>
        <g id="x" data-name=" 25" class="aw">
          <path class="au" d="M854.56,464.47c2.97-4.39,6.13-6.81,9.47-7.28,3.34-.46,6.66,.4,9.95,2.59,3.1,2.06,5.12,4.74,6.05,8.04,.93,3.3-.09,7.15-3.06,11.54-2.93,4.33-6.16,6.75-9.68,7.28-3.52,.52-6.83-.25-9.94-2.31-3.29-2.19-5.31-4.96-6.07-8.33-.75-3.36,.34-7.21,3.27-11.54Zm23.42-25.63l3.31-4.89c3.4-5.02,6.79-9.01,10.18-11.99,3.39-2.97,7.34-5.24,11.84-6.8,4.5-1.56,10.05-2.68,16.68-3.38,7.7-.79,13.95-1.66,18.77-2.6,4.81-.94,8.83-2.43,12.05-4.47,3.22-2.04,6.21-5.1,8.97-9.18,4.42-6.52,5.68-12.93,3.8-19.23-1.88-6.3-6.69-12.02-14.41-17.15-6.27-4.17-12.37-7.08-18.31-8.76-5.94-1.67-11.9-2.9-17.88-3.7l3.03-16.27c7.02,.75,14.14,2.3,21.36,4.65,7.22,2.35,14.57,6,22.04,10.97,12.22,8.12,19.66,17.41,22.31,27.86,2.65,10.45,.43,20.91-6.66,31.38-3.95,5.83-8.27,10.17-12.95,13.02-4.68,2.85-9.92,4.82-15.72,5.92-5.8,1.1-12.37,1.99-19.7,2.66-6.56,.74-11.85,1.7-15.87,2.89-4.02,1.19-7.39,2.91-10.1,5.16-2.71,2.24-5.39,5.31-8.02,9.2l-2.1,3.1-12.63-8.39Z"/>
        </g>
        <g id="y" data-name=" 26" class="aw">
          <path class="au" d="M659.55,511.89c2.97-4.39,6.13-6.81,9.47-7.28,3.34-.46,6.66,.4,9.95,2.59,3.1,2.06,5.12,4.74,6.05,8.04,.93,3.3-.09,7.15-3.06,11.54-2.93,4.33-6.16,6.75-9.68,7.28-3.52,.52-6.83-.25-9.94-2.31-3.29-2.19-5.31-4.96-6.06-8.33-.75-3.36,.34-7.21,3.27-11.54Zm23.42-25.63l3.31-4.89c3.4-5.02,6.79-9.01,10.19-11.99,3.39-2.97,7.34-5.24,11.84-6.8,4.5-1.56,10.06-2.68,16.68-3.38,7.7-.79,13.96-1.66,18.77-2.6,4.81-.94,8.83-2.43,12.05-4.47,3.22-2.04,6.21-5.1,8.97-9.18,4.42-6.52,5.68-12.93,3.8-19.23-1.88-6.3-6.69-12.02-14.41-17.15-6.27-4.17-12.37-7.08-18.31-8.76-5.94-1.67-11.9-2.9-17.88-3.7l3.03-16.27c7.02,.75,14.14,2.3,21.36,4.65,7.23,2.35,14.57,6,22.04,10.97,12.22,8.12,19.66,17.41,22.31,27.86,2.65,10.45,.43,20.91-6.66,31.38-3.95,5.83-8.27,10.17-12.95,13.02-4.68,2.85-9.92,4.82-15.72,5.92-5.8,1.1-12.37,1.99-19.71,2.66-6.56,.74-11.85,1.7-15.87,2.89-4.02,1.19-7.39,2.91-10.1,5.16-2.71,2.24-5.39,5.31-8.02,9.2l-2.1,3.1-12.63-8.39Z"/>
        </g>
        <g id="z" data-name=" 27" class="aw">
          <path class="au" d="M890.14,665.32c2.97-4.39,6.13-6.81,9.47-7.28,3.34-.46,6.66,.4,9.95,2.59,3.1,2.06,5.12,4.74,6.05,8.04,.93,3.3-.09,7.15-3.06,11.54-2.93,4.33-6.16,6.75-9.68,7.28-3.52,.52-6.83-.25-9.94-2.31-3.29-2.19-5.32-4.96-6.07-8.33-.75-3.37,.34-7.21,3.27-11.54Zm23.42-25.63l3.31-4.89c3.4-5.02,6.79-9.01,10.18-11.99,3.39-2.97,7.34-5.24,11.84-6.8,4.5-1.56,10.06-2.68,16.68-3.38,7.7-.79,13.96-1.66,18.77-2.6,4.81-.94,8.83-2.43,12.05-4.47,3.22-2.04,6.21-5.1,8.97-9.18,4.42-6.52,5.68-12.93,3.8-19.23-1.89-6.3-6.69-12.02-14.41-17.15-6.27-4.17-12.37-7.08-18.31-8.76-5.94-1.67-11.9-2.9-17.88-3.7l3.03-16.26c7.02,.75,14.14,2.3,21.36,4.65,7.22,2.35,14.57,6,22.04,10.97,12.22,8.12,19.66,17.41,22.31,27.85,2.65,10.45,.44,20.91-6.66,31.38-3.95,5.83-8.27,10.17-12.95,13.02-4.68,2.85-9.92,4.82-15.72,5.92-5.8,1.1-12.37,1.99-19.71,2.66-6.56,.74-11.85,1.7-15.87,2.89-4.02,1.19-7.39,2.91-10.1,5.16-2.71,2.24-5.39,5.31-8.02,9.2l-2.1,3.1-12.63-8.39Z"/>
        </g>
        <g id="aa" data-name=" 28" class="aw">
          <path class="au" d="M1114.81,814.63c2.97-4.39,6.13-6.82,9.47-7.28,3.34-.46,6.66,.4,9.95,2.59,3.1,2.06,5.12,4.74,6.05,8.04,.93,3.3-.09,7.15-3.06,11.54-2.93,4.33-6.16,6.75-9.68,7.28-3.52,.52-6.83-.25-9.94-2.31-3.29-2.19-5.31-4.96-6.07-8.33-.75-3.36,.34-7.21,3.27-11.54Zm23.42-25.63l3.31-4.89c3.4-5.02,6.79-9.01,10.19-11.99,3.39-2.97,7.34-5.24,11.83-6.8,4.5-1.56,10.06-2.68,16.68-3.38,7.7-.79,13.95-1.66,18.77-2.6,4.81-.94,8.83-2.43,12.05-4.47,3.22-2.04,6.21-5.1,8.97-9.18,4.42-6.52,5.68-12.93,3.8-19.23-1.88-6.3-6.69-12.02-14.41-17.15-6.27-4.17-12.37-7.08-18.31-8.76-5.94-1.67-11.9-2.9-17.88-3.7l3.03-16.27c7.02,.75,14.14,2.3,21.36,4.65,7.23,2.35,14.57,6,22.04,10.97,12.22,8.12,19.65,17.41,22.31,27.85,2.65,10.45,.43,20.91-6.66,31.38-3.95,5.83-8.27,10.17-12.95,13.02-4.68,2.85-9.92,4.82-15.72,5.92-5.8,1.1-12.37,1.99-19.71,2.66-6.56,.74-11.85,1.7-15.87,2.89-4.02,1.19-7.39,2.91-10.1,5.16-2.71,2.24-5.39,5.31-8.02,9.2l-2.1,3.1-12.63-8.39Z"/>
        </g>
        <g id="ab" data-name=" 29" class="aw">
          <path class="au" d="M1287.44,570.63c2.97-4.39,6.13-6.82,9.47-7.28,3.34-.46,6.66,.4,9.95,2.59,3.1,2.06,5.12,4.74,6.05,8.04,.93,3.3-.09,7.15-3.06,11.54-2.93,4.33-6.16,6.75-9.68,7.28-3.52,.52-6.83-.25-9.94-2.31-3.29-2.19-5.31-4.96-6.07-8.33-.75-3.36,.34-7.21,3.27-11.54Zm23.42-25.63l3.31-4.89c3.4-5.02,6.79-9.01,10.19-11.99,3.39-2.98,7.34-5.24,11.84-6.8,4.5-1.56,10.05-2.68,16.68-3.38,7.7-.79,13.95-1.66,18.77-2.6,4.81-.94,8.83-2.43,12.05-4.47,3.22-2.04,6.21-5.1,8.97-9.18,4.42-6.52,5.68-12.93,3.8-19.23-1.88-6.3-6.69-12.02-14.41-17.15-6.27-4.17-12.37-7.08-18.31-8.76-5.94-1.67-11.9-2.9-17.88-3.7l3.03-16.27c7.02,.75,14.14,2.3,21.36,4.65,7.22,2.35,14.57,6,22.04,10.97,12.22,8.12,19.66,17.41,22.31,27.85,2.65,10.45,.43,20.91-6.66,31.38-3.95,5.83-8.27,10.17-12.95,13.02-4.68,2.85-9.92,4.82-15.72,5.92-5.8,1.1-12.37,1.99-19.71,2.66-6.56,.74-11.85,1.7-15.87,2.89-4.02,1.19-7.39,2.91-10.1,5.15-2.71,2.24-5.39,5.31-8.02,9.2l-2.1,3.1-12.63-8.39Z"/>
        </g>
        <g id="ac" data-name=" 30" class="aw">
          <path class="au" d="M689.2,708.61c2.97-4.39,6.13-6.81,9.47-7.28,3.34-.46,6.66,.4,9.95,2.59,3.1,2.06,5.12,4.74,6.05,8.04,.93,3.3-.09,7.15-3.06,11.54-2.93,4.33-6.16,6.75-9.68,7.28-3.52,.52-6.84-.25-9.94-2.31-3.29-2.19-5.31-4.96-6.06-8.33-.75-3.36,.34-7.21,3.27-11.54Zm23.42-25.63l3.31-4.89c3.4-5.02,6.79-9.01,10.18-11.99,3.39-2.97,7.34-5.24,11.84-6.8,4.5-1.56,10.06-2.68,16.68-3.38,7.7-.79,13.95-1.66,18.77-2.6,4.81-.94,8.83-2.43,12.05-4.47,3.22-2.04,6.21-5.1,8.97-9.18,4.42-6.52,5.68-12.93,3.8-19.23-1.89-6.3-6.69-12.02-14.41-17.15-6.27-4.17-12.37-7.08-18.31-8.76-5.94-1.67-11.9-2.9-17.88-3.7l3.03-16.27c7.02,.75,14.14,2.3,21.36,4.65,7.22,2.35,14.57,6,22.04,10.97,12.22,8.12,19.66,17.41,22.31,27.86,2.65,10.45,.44,20.91-6.66,31.38-3.95,5.83-8.27,10.17-12.95,13.02-4.68,2.85-9.92,4.82-15.72,5.92-5.8,1.1-12.37,1.99-19.71,2.66-6.56,.74-11.85,1.7-15.87,2.89-4.02,1.19-7.39,2.91-10.1,5.15-2.71,2.24-5.39,5.31-8.02,9.2l-2.1,3.1-12.63-8.39Z"/>
        </g>
        <g id="ad" data-name=" 31" class="aw">
          <path class="au" d="M724.78,909.46c2.97-4.39,6.13-6.82,9.47-7.28,3.34-.46,6.66,.4,9.95,2.59,3.1,2.06,5.12,4.74,6.05,8.04,.93,3.3-.09,7.15-3.06,11.54-2.93,4.33-6.16,6.75-9.68,7.28-3.52,.52-6.84-.25-9.94-2.31-3.29-2.19-5.31-4.96-6.06-8.33-.75-3.36,.34-7.21,3.27-11.54Zm23.42-25.63l3.31-4.89c3.4-5.02,6.79-9.01,10.18-11.99,3.39-2.97,7.34-5.24,11.84-6.8,4.5-1.56,10.06-2.68,16.68-3.38,7.7-.79,13.95-1.66,18.77-2.6,4.81-.94,8.83-2.43,12.05-4.47,3.22-2.04,6.21-5.1,8.97-9.18,4.42-6.52,5.68-12.93,3.8-19.23-1.88-6.3-6.69-12.02-14.41-17.15-6.27-4.17-12.37-7.08-18.31-8.76-5.94-1.67-11.9-2.9-17.88-3.7l3.03-16.27c7.02,.75,14.14,2.3,21.36,4.65,7.23,2.35,14.57,6,22.04,10.97,12.22,8.12,19.66,17.41,22.31,27.85,2.65,10.45,.43,20.91-6.66,31.38-3.95,5.83-8.27,10.17-12.95,13.02-4.68,2.85-9.92,4.82-15.72,5.92-5.8,1.1-12.37,1.99-19.71,2.66-6.56,.74-11.85,1.7-15.87,2.89-4.02,1.19-7.39,2.91-10.1,5.15-2.71,2.24-5.39,5.31-8.02,9.2l-2.1,3.1-12.63-8.39Z"/>
        </g>
        <g id="ae" data-name=" 32" class="aw">
          <path class="au" d="M953.94,1063.46c2.97-4.39,6.13-6.82,9.47-7.28,3.34-.46,6.66,.4,9.95,2.59,3.1,2.06,5.12,4.74,6.05,8.04,.93,3.3-.09,7.15-3.06,11.54-2.93,4.33-6.16,6.75-9.68,7.28-3.52,.52-6.84-.25-9.94-2.31-3.29-2.19-5.31-4.96-6.06-8.33-.75-3.36,.34-7.21,3.27-11.54Zm23.42-25.63l3.31-4.89c3.4-5.02,6.79-9.01,10.18-11.99,3.39-2.97,7.34-5.24,11.84-6.8,4.5-1.56,10.06-2.68,16.68-3.38,7.7-.79,13.96-1.66,18.77-2.6,4.81-.94,8.83-2.43,12.05-4.47,3.22-2.04,6.21-5.1,8.97-9.18,4.42-6.52,5.68-12.93,3.8-19.23-1.88-6.3-6.69-12.02-14.41-17.15-6.27-4.16-12.37-7.08-18.31-8.76-5.94-1.67-11.9-2.9-17.88-3.7l3.03-16.27c7.02,.75,14.14,2.3,21.36,4.65,7.22,2.35,14.57,6,22.04,10.97,12.22,8.12,19.66,17.41,22.31,27.85,2.65,10.45,.43,20.91-6.66,31.38-3.95,5.83-8.27,10.17-12.95,13.02-4.68,2.85-9.92,4.82-15.72,5.92-5.8,1.1-12.37,1.99-19.71,2.66-6.56,.74-11.85,1.7-15.87,2.89-4.02,1.19-7.39,2.91-10.1,5.16-2.71,2.24-5.39,5.31-8.02,9.2l-2.1,3.1-12.63-8.39Z"/>
        </g>
        <g id="af" data-name=" 33" class="aw">
          <path class="au" d="M989.85,23.61c2.97-4.39,6.13-6.81,9.47-7.28,3.34-.46,6.66,.4,9.95,2.59,3.1,2.06,5.12,4.74,6.05,8.04,.93,3.3-.09,7.15-3.06,11.54-2.93,4.33-6.16,6.75-9.68,7.28-3.52,.52-6.83-.25-9.94-2.31-3.29-2.19-5.32-4.96-6.07-8.33-.75-3.36,.34-7.21,3.27-11.54Zm23.42-25.63l3.31-4.89c3.4-5.02,6.79-9.01,10.18-11.99,3.39-2.97,7.34-5.24,11.84-6.8,4.5-1.56,10.06-2.68,16.68-3.38,7.7-.79,13.95-1.66,18.77-2.6,4.81-.94,8.83-2.43,12.05-4.47,3.22-2.04,6.21-5.1,8.97-9.18,4.42-6.52,5.68-12.93,3.8-19.23-1.89-6.3-6.69-12.02-14.41-17.15-6.27-4.17-12.37-7.08-18.31-8.76-5.94-1.67-11.9-2.9-17.88-3.7l3.03-16.27c7.02,.75,14.14,2.3,21.36,4.65,7.22,2.35,14.57,6,22.04,10.97,12.22,8.12,19.66,17.41,22.31,27.85,2.65,10.45,.43,20.91-6.66,31.38-3.95,5.83-8.27,10.17-12.95,13.02-4.68,2.85-9.92,4.82-15.72,5.92-5.8,1.1-12.37,1.99-19.7,2.66-6.56,.74-11.85,1.7-15.87,2.89-4.02,1.19-7.39,2.91-10.1,5.15-2.71,2.24-5.39,5.31-8.02,9.2l-2.1,3.1-12.63-8.39Z"/>
        </g>
        <g id="ag" data-name=" 34" class="aw">
          <path class="au" d="M754.61,1107.43c2.97-4.39,6.13-6.81,9.47-7.28,3.34-.46,6.66,.4,9.95,2.59,3.1,2.06,5.12,4.74,6.05,8.04,.93,3.3-.09,7.15-3.06,11.54-2.93,4.33-6.16,6.75-9.68,7.28-3.52,.52-6.83-.25-9.94-2.31-3.29-2.19-5.31-4.96-6.07-8.33-.75-3.36,.34-7.21,3.27-11.54Zm23.42-25.63l3.31-4.89c3.4-5.02,6.79-9.01,10.18-11.99,3.39-2.97,7.34-5.24,11.84-6.8,4.5-1.56,10.06-2.68,16.68-3.38,7.7-.79,13.95-1.66,18.77-2.6,4.81-.94,8.83-2.43,12.05-4.47,3.22-2.04,6.21-5.1,8.97-9.18,4.42-6.52,5.68-12.93,3.8-19.23-1.88-6.3-6.69-12.02-14.41-17.15-6.27-4.17-12.37-7.08-18.31-8.76-5.94-1.67-11.9-2.9-17.88-3.7l3.03-16.27c7.02,.75,14.14,2.3,21.36,4.65s14.57,6,22.04,10.97c12.22,8.12,19.66,17.41,22.31,27.85,2.65,10.45,.44,20.91-6.66,31.38-3.95,5.83-8.27,10.17-12.95,13.02-4.68,2.85-9.92,4.82-15.72,5.92-5.8,1.1-12.37,1.99-19.71,2.66-6.56,.74-11.85,1.7-15.87,2.89-4.02,1.19-7.39,2.91-10.1,5.15-2.71,2.24-5.39,5.31-8.02,9.2l-2.1,3.1-12.63-8.39Z"/>
        </g>
      </g>
    </g>
    <rect id="ah" data-name="Прямоугольник 9-2" class="ap" x="13.97" y="16.11" width="785.41" height="1010.53"/>
    <rect id="ai" data-name="Прямоугольник 10" class="ao" x="757.88" y="1039.35" width="83" height="7"/>
    <path id="aj" data-name="Прямоугольник 4" class="aq" d="M7.88,7.88H1595.28v1023.48H7.88V7.88Z"/>
    <path id="ak" data-name="Прямоугольник 5" class="at" d="M794.88,7.88h9v1023.48h-9V7.88Z"/>
    <path id="al" data-name="Прямоугольник 6" class="as" d="M742.88,1046.88h113v13h-113v-13Z"/>
    <path id="am" data-name="Прямоугольник 7" class="as" d="M840.88,1029.94h15v16h-15v-16Z"/>
    <path id="an" data-name="Прямоугольник 8" class="as" d="M742.88,1029.94h15v16h-15v-16Z"/>
  </g>
</svg>