<svg width="55" height="38" viewBox="0 0 55 38" fill="none" xmlns="http://www.w3.org/2000/svg">
<path fill-rule="evenodd" clip-rule="evenodd" d="M0.00168477 3.4008C-0.0498252 1.96961 1.08649 0.788086 2.49216 0.788086H9.33616C10.7152 0.788086 11.794 1.90876 11.8443 3.24711C12.3022 15.4447 16.8782 21.2011 20.7941 23.2584V3.31919C20.7941 1.92131 21.9134 0.788086 23.2941 0.788086H29.3308C30.7115 0.788086 31.8308 1.92131 31.8308 3.31919V13.6074C33.5424 12.9753 35.3456 11.6878 36.9755 9.90716C38.84 7.87013 40.3848 5.28637 41.2445 2.58001C41.5705 1.5537 42.5147 0.788086 43.6516 0.788086H50.0328C51.5586 0.788086 52.8153 2.20581 52.4477 3.82572C50.9032 10.6305 46.5521 15.8699 42.7368 18.8399C46.7683 21.4136 51.7831 26.2863 54.2181 34.0052C54.742 35.666 53.4779 37.2543 51.8533 37.2543H44.7227C43.6174 37.2543 42.691 36.529 42.3422 35.5421C40.5782 30.5503 36.6618 26.7153 31.8308 25.5786V35.0185C31.8308 36.2533 30.842 37.2543 29.6224 37.2543C20.5684 37.2543 13.2828 34.0753 8.19026 28.1321C3.12864 22.225 0.374215 13.7526 0.00168477 3.4008ZM3.02125 3.82542C3.45168 13.474 6.06146 21.0127 10.4565 26.1418C14.7594 31.1635 20.9041 34.0298 28.8308 34.2081V24.9104C28.8308 23.4461 30.1113 22.1645 31.6907 22.4498C37.9261 23.5763 42.8473 28.2643 45.0575 34.2169H51.1244C48.7891 27.4892 44.2581 23.3042 40.7594 21.1739C39.1541 20.1965 39.0524 17.8194 40.5563 16.7C43.9109 14.2033 47.8223 9.66478 49.3574 3.82542H43.9974C42.9791 6.86173 41.2477 9.70821 39.1759 11.9716C37.0452 14.2996 34.4604 16.1111 31.7952 16.7939C30.1266 17.2214 28.8308 15.8318 28.8308 14.3943V3.82542H23.7941V24.1585C23.7941 25.7329 22.2503 27.1698 20.5155 26.4671C15.0477 24.2522 9.49166 17.3483 8.86576 3.82542H3.02125Z" fill="#222222"/>
</svg>
